<svg width="60" height="57" viewBox="0 0 60 57" fill="none" xmlns="http://www.w3.org/2000/svg">
<path d="M48.1648 18.8848L45.3184 21.2629C44.769 21.7292 44.0699 21.9973 43.221 22.0673C42.372 22.1372 41.598 21.939 40.8989 21.4727C40.1997 21.0064 39.7878 20.377 39.6629 19.5843C39.5381 18.7916 39.5755 18.0921 39.7753 17.4859L41.0487 13.4292L37.8277 11.7506C37.1286 11.3775 36.6792 10.8529 36.4794 10.1768C36.2797 9.5007 36.3046 8.7896 36.5543 8.04353C36.804 7.29747 37.2285 6.73792 37.8277 6.36488C38.427 5.99185 39.1511 5.80533 40 5.80533H43.6704L44.794 2.65786C45.0437 1.95843 45.4557 1.34059 46.03 0.804354C46.6042 0.268118 47.3159 0 48.1648 0C49.0137 0 49.7253 0.268118 50.2996 0.804354C50.8739 1.34059 51.2859 1.95843 51.5356 2.65786L52.6592 5.80533H56.3296C57.0786 5.80533 57.7778 6.00351 58.427 6.39986C59.0762 6.7962 59.5256 7.3441 59.7753 8.04353C60.025 8.69634 60.0499 9.38412 59.8502 10.1069C59.6504 10.8296 59.176 11.3775 58.427 11.7506L55.206 13.4292L56.4794 17.4859C56.7291 18.1388 56.7915 18.8498 56.6667 19.6192C56.5418 20.3886 56.1298 21.0064 55.4307 21.4727C54.7316 21.8924 53.9576 22.0789 53.1086 22.0323C52.2597 21.9857 51.5605 21.7292 51.0112 21.2629L48.1648 18.8848ZM48.1648 14.6882C49.0137 14.6882 49.7253 14.4201 50.2996 13.8838C50.8739 13.3476 51.1611 12.6831 51.1611 11.8904C51.1611 11.0977 50.8739 10.4333 50.2996 9.89704C49.7253 9.36081 49.0137 9.09269 48.1648 9.09269C47.3159 9.09269 46.6042 9.36081 46.03 9.89704C45.4557 10.4333 45.1685 11.0977 45.1685 11.8904C45.1685 12.6831 45.4557 13.3476 46.03 13.8838C46.6042 14.4201 47.3159 14.6882 48.1648 14.6882ZM33.633 45.4635C34.7316 47.9814 34.3446 50.3712 32.4719 52.6327C30.5992 54.8942 28.1398 56.025 25.0936 56.025C23.4956 56.025 22.0474 55.6636 20.7491 54.9408C19.4507 54.2181 18.427 53.1106 17.6779 51.6185C14.3321 51.9449 11.2859 50.8375 8.53933 48.2962C5.79276 45.7549 4.51935 42.9222 4.7191 39.798C3.22097 39.0519 2.05992 37.9212 1.23595 36.4057C0.411985 34.8903 0 33.4564 0 32.1042C0 28.98 1.17353 26.6602 3.5206 25.1448C5.86767 23.6293 8.68914 23.5477 11.985 24.9L16.4794 26.5786C17.3283 24.8534 18.5643 23.5128 20.1873 22.5569C21.8102 21.601 23.5955 21.0764 25.5431 20.9831V14.968H29.2135V21.2629C31.2609 21.6359 33.0587 22.6385 34.6067 24.2705C36.1548 25.9025 37.1036 27.4646 37.4532 28.9567H44.1948V32.4539H37.7528C37.603 34.2725 37.0287 35.9394 36.03 37.4549C35.0312 38.9703 33.608 40.1244 31.7603 40.9171L33.633 45.4635ZM16.3296 47.4918C16.1798 46.2328 16.2297 44.9389 16.4794 43.6099C16.7291 42.281 17.1036 40.9871 17.603 39.7281C16.2547 40.3809 14.8689 40.7772 13.4457 40.9171C12.0225 41.057 10.5868 41.0337 9.13858 40.8472C9.23845 42.3859 10.0624 43.8781 11.6105 45.3236C13.1586 46.7691 14.7316 47.4918 16.3296 47.4918ZM10.7865 36.7904C12.784 36.7904 14.8939 36.2892 17.1161 35.2866C19.3383 34.2841 20.824 33.5497 21.573 33.0834L10.9363 29.0267C9.68789 28.5137 8.30212 28.572 6.77903 29.2015C5.25593 29.831 4.49438 30.7519 4.49438 31.9643C4.49438 33.1767 5.33084 34.2841 7.00375 35.2866C8.67665 36.2892 9.93758 36.7904 10.7865 36.7904ZM25.0936 51.8283C26.6417 51.8283 27.8777 51.3504 28.8015 50.3945C29.7253 49.4386 29.9126 48.3078 29.3633 47.0022L24.8689 36.1609C23.97 37.5132 23.0712 38.947 22.1723 40.4625C21.2734 41.9779 20.824 43.9014 20.824 46.2328C20.824 47.1654 21.186 48.3312 21.9101 49.73C22.6342 51.1289 23.6954 51.8283 25.0936 51.8283ZM29.9625 37.0003C31.2609 36.3008 32.1348 35.4615 32.5843 34.4823C33.0337 33.5031 33.2584 32.4539 33.2584 31.3348C33.2584 29.7028 32.6217 28.2923 31.3483 27.1032C30.0749 25.9142 28.5643 25.3196 26.8165 25.3196C25.618 25.3196 24.4569 25.5761 23.3333 26.089C22.2097 26.602 21.3733 27.4413 20.824 28.607L27.3408 30.9851L29.9625 37.0003Z" fill="#FCD34D"/>
</svg>
