<svg width="61" height="60" viewBox="0 0 61 60" fill="none" xmlns="http://www.w3.org/2000/svg">
<path d="M30.0375 60C26.433 59.5995 22.8411 58.5607 19.2616 56.8836C15.6821 55.2065 12.4656 52.8786 9.61201 49.8999C6.75845 46.9212 4.44305 43.2416 2.66583 38.8611C0.888611 34.4806 0 29.3867 0 23.5795V20.7259H2.85357C5.50688 20.7259 8.33542 21.239 11.3392 22.2653C14.3429 23.2916 16.9962 24.6058 19.2991 26.2078C19.6996 21.7021 20.9011 17.0588 22.9036 12.2778C24.9061 7.49687 27.2841 3.40426 30.0375 0C32.791 3.40426 35.169 7.49687 37.1715 12.2778C39.174 17.0588 40.3755 21.7021 40.776 26.2078C43.0788 24.7059 45.7322 23.4168 48.7359 22.3404C51.7397 21.2641 54.5682 20.7259 57.2215 20.7259H60.0751V23.5795C60.0751 29.3867 59.1865 34.4806 57.4093 38.8611C55.632 43.2416 53.3166 46.9212 50.4631 49.8999C47.6095 52.8786 44.393 55.2065 40.8135 56.8836C37.234 58.5607 33.6421 59.5995 30.0375 60ZM30.6383 55.4193C30.0876 46.1076 27.3967 39.0488 22.5657 34.2428C17.7347 29.4368 11.7397 26.4581 4.58073 25.3066C5.23154 34.9687 8.04756 42.1777 13.0288 46.9337C18.01 51.6896 23.8798 54.5181 30.6383 55.4193ZM29.9625 37.0213C30.6633 35.7197 31.627 34.3179 32.8536 32.816C34.0801 31.3141 35.2691 30.0626 36.4205 29.0613C36.6708 25.6571 36.1702 22.2028 34.9186 18.6984C33.6671 15.194 32.04 11.5645 30.0375 7.80976C28.035 11.5645 26.408 15.194 25.1564 18.6984C23.9049 22.2028 23.4043 25.6571 23.6546 29.0613C24.806 30.0626 25.97 31.3141 27.1464 32.816C28.3229 34.3179 29.2616 35.7197 29.9625 37.0213ZM35.1439 54.1427C37.4969 53.2916 39.8373 52.1652 42.1652 50.7635C44.4931 49.3617 46.5957 47.5344 48.4731 45.2816C50.3504 43.0288 51.9274 40.2628 53.204 36.9837C54.4806 33.7046 55.2441 29.8123 55.4944 25.3066C50.1877 26.1577 45.5069 28.0476 41.4518 30.9762C37.3967 33.9049 34.418 37.5219 32.5156 41.8273C33.1164 43.7297 33.6421 45.6446 34.0926 47.572C34.5432 49.4994 34.8936 51.6896 35.1439 54.1427Z" fill="#FCD34D"/>
</svg>
