<svg width="48" height="57" viewBox="0 0 48 57" fill="none" xmlns="http://www.w3.org/2000/svg">
<path d="M23.925 47.061C24.725 47.061 25.3375 46.9326 25.7625 46.6758C26.1875 46.419 26.4 46.0338 26.4 45.5203C26.4 45.0067 26.1875 44.6099 25.7625 44.3298C25.3375 44.0496 24.7 43.9096 23.85 43.9096C21.75 43.9096 19.6125 43.291 17.4375 42.0537C15.2625 40.8165 13.875 38.6339 13.275 35.5058C13.175 35.0856 12.95 34.7472 12.6 34.4904C12.25 34.2336 11.875 34.1052 11.475 34.1052C10.925 34.1052 10.5 34.3036 10.2 34.7005C9.9 35.0973 9.8 35.5058 9.9 35.926C10.65 39.8478 12.425 42.684 15.225 44.4348C18.025 46.1856 20.925 47.061 23.925 47.061ZM24 56.025C17.15 56.025 11.4375 53.8307 6.8625 49.442C2.2875 45.0534 0 39.591 0 33.0547C0 28.386 1.9875 23.3087 5.9625 17.8229C9.9375 12.3372 15.95 6.39618 24 0C32.05 6.39618 38.0625 12.3372 42.0375 17.8229C46.0125 23.3087 48 28.386 48 33.0547C48 39.591 45.7125 45.0534 41.1375 49.442C36.5625 53.8307 30.85 56.025 24 56.025ZM24 51.8231C29.6 51.8231 34.25 50.0373 37.95 46.4657C41.65 42.8941 43.5 38.4238 43.5 33.0547C43.5 29.3664 41.8375 25.1762 38.5125 20.4841C35.1875 15.792 30.35 10.8315 24 5.6025C17.65 10.8315 12.8125 15.792 9.4875 20.4841C6.1625 25.1762 4.5 29.3664 4.5 33.0547C4.5 38.4238 6.35 42.8941 10.05 46.4657C13.75 50.0373 18.4 51.8231 24 51.8231Z" fill="#FCD34D"/>
</svg>
