<svg width="60" height="61" viewBox="0 0 60 61" fill="none" xmlns="http://www.w3.org/2000/svg">
<path d="M8.2655 51.963C5.65846 49.2968 3.62912 46.2157 2.17747 42.7199C0.725823 39.2241 0 35.6394 0 31.9659C0 27.6405 0.755449 23.6856 2.26635 20.1009C3.77725 16.5162 6.04359 13.213 9.06539 10.1912C11.1392 8.11737 13.7166 6.36947 16.7976 4.94745C19.8787 3.52543 23.5078 2.41447 27.685 1.61459C31.8622 0.814701 36.5874 0.311067 41.8608 0.103689C47.1341 -0.103689 52.9999 2.38385e-07 59.4583 0.414757C59.9323 6.81385 60.0952 12.6649 59.9471 17.9678C59.799 23.2708 59.325 28.0257 58.5251 32.2325C57.7252 36.4393 56.5994 40.1277 55.1478 43.2976C53.6961 46.4675 51.9038 49.119 49.7708 51.252C46.749 54.2738 43.4902 56.555 39.9944 58.0955C36.4986 59.636 32.7658 60.4063 28.7959 60.4063C24.7076 60.4063 20.96 59.7101 17.5531 58.3177C14.1462 56.9253 11.0503 54.8071 8.2655 51.963ZM17.4198 51.963C18.901 52.9703 20.6193 53.7406 22.5746 54.2738C24.5299 54.8071 26.6037 55.0737 28.7959 55.0737C31.9362 55.0737 34.9877 54.422 37.9502 53.1184C40.9127 51.8149 43.6087 49.9189 46.038 47.4303C47.6377 45.8306 49.0005 43.742 50.1263 41.1646C51.252 38.5871 52.1704 35.5357 52.8814 32.0103C53.5924 28.4849 54.0664 24.5002 54.3035 20.0564C54.5405 15.6126 54.5405 10.7244 54.3035 5.39183C48.7339 5.27333 43.742 5.34739 39.3278 5.61402C34.9136 5.88065 31.0178 6.36947 27.6405 7.08048C24.2632 7.79149 21.3599 8.69507 18.9307 9.79121C16.5014 10.8874 14.5165 12.2353 12.9759 13.8351C10.4874 16.3829 8.59138 19.0788 7.28786 21.9228C5.98434 24.7669 5.33258 27.6702 5.33258 30.6327C5.33258 33.4768 5.9399 36.4541 7.15455 39.5648C8.36919 42.6755 9.86528 45.1788 11.6428 47.0748C14.7831 41.2683 18.5455 36.0542 22.9301 31.4326C27.3147 26.811 31.9659 23.1671 36.8837 20.5008C31.7289 24.9446 27.5517 29.7588 24.3521 34.9432C21.1526 40.1277 18.8418 45.8009 17.4198 51.963Z" fill="#FCD34D"/>
</svg>
