<svg width="54" height="60" viewBox="0 0 54 60" fill="none" xmlns="http://www.w3.org/2000/svg">
<path d="M0 60V42C0 39.7 0.8 37.75 2.4 36.15C4 34.55 5.95 33.75 8.25 33.75H14.25C18 33.75 20.5625 32.925 21.9375 31.275C23.3125 29.625 24 27.7 24 25.5C24 23.9 23.575 22.625 22.725 21.675C21.875 20.725 20.8 20.25 19.5 20.25C18.25 20.25 17.1875 19.8125 16.3125 18.9375C15.4375 18.0625 15 17 15 15.75V0H19.5V15.75C19.6 15.75 19.6 15.75 19.5 15.75C22 15.75 24.125 16.6625 25.875 18.4875C27.625 20.3125 28.5 22.65 28.5 25.5C28.5 28.95 27.375 31.9375 25.125 34.4625C22.875 36.9875 19.25 38.25 14.25 38.25H8.25C7.2 38.25 6.3125 38.6125 5.5875 39.3375C4.8625 40.0625 4.5 40.95 4.5 42V60H0ZM18 60H13.5V54C13.5 51.7 14.3 49.75 15.9 48.15C17.5 46.55 19.45 45.75 21.75 45.75H33.75C38.15 45.75 41.875 44.225 44.925 41.175C47.975 38.125 49.5 34.4 49.5 30V27C49.5 22.6 47.85 18.875 44.55 15.825C41.25 12.775 37.4 11.25 33 11.25C31.75 11.25 30.6875 10.8125 29.8125 9.9375C28.9375 9.0625 28.5 8 28.5 6.75V0H33V6.75C38.6 6.75 43.5 8.725 47.7 12.675C51.9 16.625 54 21.4 54 27V30C54 35.6 52.025 40.375 48.075 44.325C44.125 48.275 39.35 50.25 33.75 50.25H21.75C20.7 50.25 19.8125 50.6125 19.0875 51.3375C18.3625 52.0625 18 52.95 18 54V60Z" fill="#FCD34D"/>
</svg>
