<svg width="60" height="60" viewBox="0 0 60 60" fill="none" xmlns="http://www.w3.org/2000/svg">
<path d="M0 60V55H53.25V60H0ZM12.5833 50C9.08333 50 6.11111 48.7917 3.66667 46.375C1.22222 43.9583 0 41 0 37.5V0H55C56.3333 0 57.5 0.5 58.5 1.5C59.5 2.5 60 3.66667 60 5V18.3333C60 19.6667 59.5 20.8333 58.5 21.8333C57.5 22.8333 56.3333 23.3333 55 23.3333H47V37.5C47 41 45.7917 43.9583 43.375 46.375C40.9583 48.7917 37.9722 50 34.4167 50H12.5833ZM47 18.3333H55V5H47V18.3333ZM12.5833 45H34.4167C36.4167 45 38.1806 44.2361 39.7083 42.7083C41.2361 41.1806 42 39.4444 42 37.5V5H19.75V7.75L25.6667 12.5833C25.7222 12.6389 25.9722 13.1389 26.4167 14.0833V26.5833C26.4167 27.1389 26.2222 27.6111 25.8333 28C25.4444 28.3889 24.9444 28.5833 24.3333 28.5833H11.75C11.1389 28.5833 10.6389 28.3889 10.25 28C9.86111 27.6111 9.66667 27.1389 9.66667 26.5833V14.0833C9.66667 13.8056 9.91667 13.3056 10.4167 12.5833L16.4167 7.75V5H5V37.5C5 39.4444 5.77778 41.1806 7.33333 42.7083C8.88889 44.2361 10.6389 45 12.5833 45Z" fill="#FCD34D"/>
</svg>
