<svg width="67" height="60" viewBox="0 0 67 60" fill="none" xmlns="http://www.w3.org/2000/svg">
<path d="M66 25.95C66.1 29.65 65.3375 33.5125 63.7125 37.5375C62.0875 41.5625 59.8875 45.2375 57.1125 48.5625C54.3375 51.8875 51.125 54.625 47.475 56.775C43.825 58.925 40.025 60 36.075 60C34.575 60 32.8375 59.9 30.8625 59.7C28.8875 59.5 26.875 59.175 24.825 58.725C22.775 58.275 20.8 57.7 18.9 57C17 56.3 15.375 55.45 14.025 54.45C12.525 53.3 10.95 51.5 9.3 49.05C7.65 46.6 6.1375 43.925 4.7625 41.025C3.3875 38.125 2.25 35.225 1.35 32.325C0.45 29.425 0 26.95 0 24.9C0 20.65 1.45 17.1875 4.35 14.5125C7.25 11.8375 10.35 9.425 13.65 7.275C16.65 5.325 19.975 3.625 23.625 2.175C27.275 0.725 31.05 0 34.95 0C36.9 0 38.75 0.2 40.5 0.6C42.25 1 43.9375 1.55 45.5625 2.25C47.1875 2.95 48.7875 3.775 50.3625 4.725C51.9375 5.675 53.5 6.675 55.05 7.725C55.8 8.225 56.775 8.975 57.975 9.975C59.175 10.975 60.3625 12.225 61.5375 13.725C62.7125 15.225 63.7375 16.9875 64.6125 19.0125C65.4875 21.0375 65.95 23.35 66 25.95ZM36 55.5C39.3 55.5 42.4875 54.55 45.5625 52.65C48.6375 50.75 51.375 48.35 53.775 45.45C56.175 42.55 58.0875 39.375 59.5125 35.925C60.9375 32.475 61.6 29.2 61.5 26.1C61.4 22.35 60.2875 19.2625 58.1625 16.8375C56.0375 14.4125 54.15 12.625 52.5 11.475C49.8 9.675 47.0375 8.0625 44.2125 6.6375C41.3875 5.2125 38.3 4.5 34.95 4.5C31.5 4.5 28.1 5.175 24.75 6.525C21.4 7.875 18.375 9.45 15.675 11.25C13.525 12.7 11.1125 14.575 8.4375 16.875C5.7625 19.175 4.425 21.75 4.425 24.6C4.425 26.3 4.8375 28.45 5.6625 31.05C6.4875 33.65 7.5125 36.2625 8.7375 38.8875C9.9625 41.5125 11.2875 43.9375 12.7125 46.1625C14.1375 48.3875 15.45 49.95 16.65 50.85C18.55 52.3 21.4625 53.4375 25.3875 54.2625C29.3125 55.0875 32.85 55.5 36 55.5ZM28.05 47.25C30.5 47.25 32.5375 46.375 34.1625 44.625C35.7875 42.875 36.6 40.9 36.6 38.7C36.6 37.7 36.3875 36.7125 35.9625 35.7375C35.5375 34.7625 34.875 33.85 33.975 33C32.825 31.95 31.875 30.8 31.125 29.55C30.375 28.3 29.825 26.9 29.475 25.35C29.025 23.35 28.025 21.75 26.475 20.55C24.925 19.35 23.2 18.75 21.3 18.75C19.05 18.75 17.0625 19.6125 15.3375 21.3375C13.6125 23.0625 12.75 25.05 12.75 27.3C12.75 29.15 13.1375 31.225 13.9125 33.525C14.6875 35.825 15.7625 37.9875 17.1375 40.0125C18.5125 42.0375 20.1375 43.75 22.0125 45.15C23.8875 46.55 25.9 47.25 28.05 47.25ZM28.05 42.75C26.65 42.75 25.3 42.1625 24 40.9875C22.7 39.8125 21.55 38.4125 20.55 36.7875C19.55 35.1625 18.75 33.475 18.15 31.725C17.55 29.975 17.25 28.5 17.25 27.3C17.25 26.3 17.675 25.375 18.525 24.525C19.375 23.675 20.3 23.25 21.3 23.25C22.05 23.25 22.825 23.5125 23.625 24.0375C24.425 24.5625 24.95 25.35 25.2 26.4C25.7 28.45 26.3875 30.2625 27.2625 31.8375C28.1375 33.4125 29.375 34.925 30.975 36.375C31.375 36.725 31.6625 37.1125 31.8375 37.5375C32.0125 37.9625 32.1 38.4 32.1 38.85C32.1 39.85 31.725 40.75 30.975 41.55C30.225 42.35 29.25 42.75 28.05 42.75ZM45.75 32.25C46.4 32.25 46.9375 32.025 47.3625 31.575C47.7875 31.125 48 30.6 48 30V28.05L49.8 28.95C50.35 29.2 50.9125 29.2625 51.4875 29.1375C52.0625 29.0125 52.525 28.675 52.875 28.125C53.225 27.575 53.3375 26.9875 53.2125 26.3625C53.0875 25.7375 52.75 25.3 52.2 25.05L50.1 24L52.2 22.95C52.75 22.7 53.075 22.2625 53.175 21.6375C53.275 21.0125 53.175 20.425 52.875 19.875C52.575 19.325 52.125 19 51.525 18.9C50.925 18.8 50.35 18.875 49.8 19.125L48 20.025V18C48 17.35 47.7875 16.8125 47.3625 16.3875C46.9375 15.9625 46.4 15.75 45.75 15.75C45.15 15.75 44.625 15.9625 44.175 16.3875C43.725 16.8125 43.5 17.35 43.5 18V20.1L41.7 19.125C41.15 18.825 40.5875 18.75 40.0125 18.9C39.4375 19.05 38.975 19.4 38.625 19.95C38.325 20.5 38.2375 21.0875 38.3625 21.7125C38.4875 22.3375 38.825 22.775 39.375 23.025L41.325 23.85L39.525 25.05C38.975 25.4 38.6125 25.8625 38.4375 26.4375C38.2625 27.0125 38.325 27.575 38.625 28.125C38.975 28.675 39.4375 29.025 40.0125 29.175C40.5875 29.325 41.15 29.25 41.7 28.95L43.5 27.975V30C43.5 30.6 43.725 31.125 44.175 31.575C44.625 32.025 45.15 32.25 45.75 32.25Z" fill="#FCD34D"/>
</svg>
