<svg width="64" height="60" viewBox="0 0 64 60" fill="none" xmlns="http://www.w3.org/2000/svg">
<path d="M46.1076 56.9962L35.5194 46.408L38.6733 43.2541L46.1076 50.6133L59.9249 36.8711L63.0788 40.1001L46.1076 56.9962ZM34.5432 60C28.9362 60 24.2804 58.035 20.5757 54.1051C16.8711 50.1752 15.0188 45.4819 15.0188 40.025V37.3967C10.7635 36.8461 7.1965 34.9562 4.3179 31.7272C1.4393 28.4981 0 24.6809 0 20.2753V3.00375H9.01126V0H13.5169V10.5131H9.01126V7.50939H4.50563V20.2753C4.50563 23.8298 5.74468 26.8461 8.22278 29.3242C10.7009 31.8023 13.7171 33.0413 17.2716 33.0413C20.826 33.0413 23.8423 31.8023 26.3204 29.3242C28.7985 26.8461 30.0375 23.8298 30.0375 20.2753V7.50939H25.5319V10.5131H21.0263V0H25.5319V3.00375H34.5432V20.2753C34.5432 24.6809 33.1039 28.4981 30.2253 31.7272C27.3467 34.9562 23.7797 36.8461 19.5244 37.3967V40.025C19.5244 44.2803 20.9387 47.9224 23.7672 50.9512C26.5957 53.98 30.1877 55.4944 34.5432 55.4944V60Z" fill="#FCD34D"/>
</svg>
