<svg width="54" height="59" viewBox="0 0 54 59" fill="none" xmlns="http://www.w3.org/2000/svg">
<path d="M11.7 59C10.05 59 8.7375 58.5329 7.7625 57.5987C6.7875 56.6646 6.225 55.46 6.075 53.985L0 0H54L47.925 53.985C47.775 55.46 47.2125 56.6646 46.2375 57.5987C45.2625 58.5329 43.975 59 42.375 59H11.7ZM7.05 22.125L10.65 54.575H43.35L46.95 22.125H7.05ZM6.525 17.7H47.475L48.975 4.425H5.025L6.525 17.7ZM27 50.6662C29.25 50.6662 31.1625 49.9165 32.7375 48.4169C34.3125 46.9173 35.1 45.0612 35.1 42.8487C35.1 40.5379 34.3875 38.0796 32.9625 35.4737C31.5375 32.8679 29.55 30.385 27 28.025C24.45 30.385 22.4625 32.8679 21.0375 35.4737C19.6125 38.0796 18.9 40.5379 18.9 42.8487C18.9 45.0612 19.6875 46.9173 21.2625 48.4169C22.8375 49.9165 24.75 50.6662 27 50.6662ZM27 46.2412C26 46.2412 25.15 45.8971 24.45 45.2088C23.75 44.5204 23.4 43.6846 23.4 42.7013C23.4 41.6688 23.6875 40.4396 24.2625 39.0138C24.8375 37.5879 25.75 36.0883 27 34.515C28.25 36.1375 29.1625 37.6617 29.7375 39.0875C30.3125 40.5133 30.6 41.7179 30.6 42.7013C30.6 43.6846 30.25 44.5204 29.55 45.2088C28.85 45.8971 28 46.2412 27 46.2412Z" fill="#FCD34D"/>
</svg>
