<svg width="61" height="60" viewBox="0 0 61 60" fill="none" xmlns="http://www.w3.org/2000/svg">
<path d="M27.8873 60V33.8873H26.1972C22.5916 33.8873 19.1972 33.1972 16.0141 31.8169C12.831 30.4366 10 28.4789 7.52113 25.9437C5.04225 23.4085 3.16901 20.4789 1.90141 17.1549C0.633803 13.831 0 10.3662 0 6.76056V0H6.59155C10.0845 0 13.4366 0.690141 16.6479 2.07042C19.8592 3.4507 22.7324 5.40845 25.2676 7.94366C27.1268 9.85915 28.662 12 29.8732 14.3662C31.0845 16.7324 31.9437 19.2394 32.4507 21.8873C32.9014 21.2113 33.3803 20.5634 33.8873 19.9437C34.3944 19.3239 34.9296 18.7042 35.493 18.0845C38.0282 15.5493 40.9014 13.5915 44.1127 12.2113C47.3239 10.831 50.7042 10.1408 54.2535 10.1408H60.8451V16.9014C60.8451 20.507 60.169 23.9718 58.8169 27.2958C57.4648 30.6197 55.5493 33.5493 53.0704 36.0845C50.5352 38.6197 47.6761 40.5634 44.493 41.9155C41.3099 43.2676 37.9718 43.9437 34.4789 43.9437H32.9577V60H27.8873ZM27.9718 28.7324C27.9718 25.2958 27.4085 22.0986 26.2817 19.1408C25.1549 16.1831 23.6056 13.662 21.6338 11.5775C19.662 9.5493 17.2394 7.95775 14.3662 6.80282C11.493 5.64789 8.39437 5.07042 5.07042 5.07042C5.07042 8.61972 5.59155 11.8732 6.6338 14.831C7.67606 17.7887 9.1831 20.3099 11.1549 22.3944C13.5211 24.9296 16.0704 26.6197 18.8028 27.4648C21.5352 28.3099 24.5915 28.7324 27.9718 28.7324ZM32.9577 38.8732C36.338 38.8732 39.4648 38.3239 42.338 37.2254C45.2113 36.1268 47.6338 34.5352 49.6056 32.4507C51.5775 30.4225 53.0986 27.9296 54.169 24.9718C55.2394 22.0141 55.7747 18.7606 55.7747 15.2113C52.3944 15.2113 49.2676 15.7887 46.3944 16.9437C43.5211 18.0986 41.0986 19.6901 39.1268 21.7183C36.7042 24.2535 35.0704 26.9014 34.2254 29.662C33.3803 32.4225 32.9577 35.493 32.9577 38.8732Z" fill="#FCD34D"/>
</svg>
