<svg width="48" height="60" viewBox="0 0 48 60" fill="none" xmlns="http://www.w3.org/2000/svg">
<path d="M21 39.075H27V31.575H34.5V25.575H27V18.075H21V25.575H13.5V31.575H21V39.075ZM24 60C17 58.25 11.25 54.1875 6.75 47.8125C2.25 41.4375 0 34.45 0 26.85V9L24 0L48 9V26.85C48 34.45 45.75 41.4375 41.25 47.8125C36.75 54.1875 31 58.25 24 60ZM24 55.35C29.75 53.45 34.4375 49.8625 38.0625 44.5875C41.6875 39.3125 43.5 33.4 43.5 26.85V12.15L24 4.8L4.5 12.15V26.85C4.5 33.4 6.3125 39.3125 9.9375 44.5875C13.5625 49.8625 18.25 53.45 24 55.35Z" fill="#FCD34D"/>
</svg>
