<svg width="724" height="729" viewBox="0 0 724 729" fill="none" xmlns="http://www.w3.org/2000/svg">
<path d="M99.737 627.104C68.2788 594.927 43.7914 557.744 26.2748 515.556C8.75827 473.367 0 430.106 0 385.773C0 333.574 9.11575 285.844 27.3473 242.583C45.5788 199.322 72.926 159.458 109.389 122.99C134.413 97.9627 165.513 76.8686 202.691 59.7072C239.869 42.5459 283.661 29.1386 334.065 19.4853C384.47 9.83203 441.488 3.75405 505.12 1.25135C568.751 -1.25135 639.533 2.8769e-06 717.463 5.0054C723.183 82.2315 725.149 152.843 723.362 216.841C721.574 280.838 715.855 338.222 706.203 388.991C696.551 439.76 682.966 484.272 665.45 522.527C647.933 560.783 626.306 592.782 600.567 618.524C564.104 654.992 524.781 682.521 482.599 701.113C440.416 719.704 395.373 729 347.471 729C298.139 729 252.917 720.598 211.807 703.794C170.697 686.99 133.34 661.427 99.737 627.104ZM210.198 627.104C228.073 639.26 248.806 648.556 272.4 654.992C295.994 661.427 321.017 664.645 347.471 664.645C385.364 664.645 422.184 656.779 457.932 641.048C493.68 625.317 526.211 602.435 555.525 572.403C574.829 553.096 591.273 527.89 604.857 496.785C618.441 465.68 629.523 428.855 638.103 386.309C646.682 343.763 652.402 295.676 655.262 242.047C658.121 188.417 658.121 129.425 655.262 65.0701C588.055 63.64 527.82 64.5339 474.555 67.7516C421.291 70.9694 374.282 76.8686 333.529 85.4492C292.776 94.0299 257.743 104.935 228.43 118.163C199.117 131.392 175.165 147.659 156.576 166.966C126.548 197.713 103.669 230.248 87.9402 264.571C72.2111 298.894 64.3465 333.931 64.3465 369.684C64.3465 404.007 71.6748 439.939 86.3315 477.479C100.988 515.019 119.041 545.231 140.49 568.112C178.383 498.037 223.783 435.112 276.69 379.337C329.597 323.563 385.721 279.587 445.063 247.41C382.862 301.039 332.457 359.137 293.849 421.705C255.241 484.272 227.358 552.739 210.198 627.104Z" fill="white"/>
</svg>
