<svg width="721" height="720" viewBox="0 0 721 720" fill="none" xmlns="http://www.w3.org/2000/svg">
<path d="M360.5 720C317.24 715.194 274.13 702.728 231.171 682.603C188.211 662.478 149.607 634.543 115.36 598.799C81.1125 563.054 53.324 518.899 31.9944 466.333C10.6648 413.767 0 352.641 0 282.954V248.711H34.2475C66.0917 248.711 100.039 254.869 136.089 267.184C172.139 279.499 203.983 295.269 231.621 314.493C236.428 260.426 250.848 204.706 274.881 147.334C298.915 89.9625 327.454 40.8511 360.5 0C393.546 40.8511 422.085 89.9625 446.119 147.334C470.152 204.706 484.572 260.426 489.379 314.493C517.017 296.471 548.861 281.001 584.911 268.085C620.961 255.169 654.908 248.711 686.752 248.711H721V282.954C721 352.641 710.335 413.767 689.006 466.333C667.676 518.899 639.887 563.054 605.64 598.799C571.392 634.543 532.789 662.478 489.829 682.603C446.87 702.728 403.76 715.194 360.5 720ZM367.71 665.031C361.101 553.292 328.806 468.586 270.826 410.914C212.845 353.242 140.895 317.497 54.9763 303.68C62.7871 419.624 96.584 506.133 156.367 563.204C216.15 620.275 286.597 654.218 367.71 665.031ZM359.599 444.255C368.01 428.636 379.576 411.815 394.297 393.792C409.017 375.77 423.287 360.751 437.106 348.736C440.11 307.885 434.102 266.433 419.081 224.38C404.06 182.328 384.533 138.773 360.5 93.7171C336.467 138.773 316.94 182.328 301.919 224.38C286.898 266.433 280.89 307.885 283.894 348.736C297.713 360.751 311.682 375.77 325.802 393.792C339.921 411.815 351.187 428.636 359.599 444.255ZM421.785 649.712C450.024 639.499 478.113 625.982 506.052 609.161C533.991 592.34 559.226 570.413 581.757 543.379C604.288 516.345 623.214 483.154 638.536 443.805C653.857 404.456 663.02 357.747 666.024 303.68C602.335 313.892 546.157 336.571 497.49 371.715C448.822 406.859 413.073 450.263 390.241 501.927C397.451 524.756 403.76 547.735 409.168 570.864C414.575 593.992 418.781 620.275 421.785 649.712Z" fill="white"/>
</svg>
