<svg width="1488" height="353" viewBox="0 0 1488 353" fill="none" xmlns="http://www.w3.org/2000/svg">
<path d="M0 4.90277V348.097H78.3766V242.688H86.2143C101.89 242.688 115.442 240.726 126.872 236.804C138.302 232.555 147.773 226.018 155.284 217.193C163.121 208.368 168.836 196.601 172.429 181.893C176.021 167.185 177.817 149.044 177.817 127.472V126.492C177.817 84.3278 169.979 53.6037 154.304 34.3194C138.629 14.7083 116.259 4.90277 87.194 4.90277H0ZM78.3766 73.0514H86.2143C91.766 73.0514 95.3582 74.5222 96.9911 77.4639C98.6239 80.0787 99.4403 84.8181 99.4403 91.682V156.399C99.4403 163.263 98.6239 168.002 96.9911 170.617C95.3582 173.231 91.766 174.539 86.2143 174.539H78.3766V73.0514Z" fill="white"/>
<path d="M186.565 4.90277V348.097H264.942V221.115H272.78C278.005 221.115 281.434 222.423 283.067 225.037C285.026 227.325 286.006 231.575 286.006 237.785V277.497C286.006 290.898 286.169 303.482 286.496 315.249C287.149 326.688 288.618 337.638 290.904 348.097H369.281C367.322 337.638 366.015 326.852 365.362 315.739C364.709 304.626 364.382 292.206 364.382 278.478V274.065C364.382 260.991 362.75 249.388 359.484 239.256C356.545 229.123 352.626 220.462 347.727 213.271C343.155 206.08 337.767 200.524 331.562 196.601C325.684 192.352 319.969 190.064 314.417 189.738V184.344C319.969 184.018 325.684 182.056 331.562 178.461C337.767 174.866 343.155 169.473 347.727 162.282C352.626 155.091 356.545 146.266 359.484 135.807C362.75 125.348 364.382 113.091 364.382 99.0361V96.5847C364.382 65.5338 356.545 42.4907 340.869 27.4556C325.194 12.4204 302.824 4.90277 273.759 4.90277H186.565ZM264.942 73.0514H272.78C278.005 73.0514 281.434 74.3588 283.067 76.9736C285.026 79.2616 286.006 83.5107 286.006 89.7208V135.807C286.006 142.344 285.026 146.92 283.067 149.535C281.434 151.823 278.005 152.967 272.78 152.967H264.942V73.0514Z" fill="white"/>
<path d="M375.99 90.2111V262.299C375.99 277.334 377.949 290.571 381.868 302.011C386.113 313.124 391.992 322.603 399.503 330.447C407.014 337.965 416.158 343.685 426.934 347.607C438.038 351.202 450.611 353 464.653 353C478.696 353 491.269 351.039 502.372 347.117C513.802 343.194 523.436 337.475 531.273 329.957C539.111 322.439 545.153 313.124 549.398 302.011C553.643 290.571 555.766 277.334 555.766 262.299V90.2111C555.766 75.5028 553.643 62.5921 549.398 51.4792C545.153 40.0394 539.111 30.5606 531.273 23.0431C523.436 15.5255 513.802 9.80556 502.372 5.88335C491.269 1.96112 478.696 0 464.653 0C450.611 0 438.038 1.96112 426.934 5.88335C416.158 9.47871 407.014 15.0352 399.503 22.5528C391.992 30.0704 386.113 39.5491 381.868 50.9889C377.949 62.1019 375.99 75.1759 375.99 90.2111ZM454.366 84.3278C454.366 81.0593 454.693 78.4444 455.346 76.4833C455.999 74.5222 456.816 72.888 457.795 71.5806C458.775 70.2732 459.918 69.456 461.224 69.1292C462.857 68.4755 464.327 68.1486 465.633 68.1486C467.592 68.1486 469.225 68.4755 470.531 69.1292C471.838 69.456 472.981 70.2732 473.96 71.5806C474.94 72.888 475.757 74.5222 476.41 76.4833C477.063 78.4444 477.389 81.0593 477.389 84.3278V268.672C477.389 271.614 477.063 274.065 476.41 276.026C475.757 277.988 474.94 279.622 473.96 280.929C472.981 282.237 471.838 283.217 470.531 283.871C469.225 284.525 467.592 284.851 465.633 284.851C464.327 284.851 462.857 284.525 461.224 283.871C459.918 283.217 458.775 282.237 457.795 280.929C456.816 279.622 455.999 277.988 455.346 276.026C454.693 274.065 454.366 271.614 454.366 268.672V84.3278Z" fill="white"/>
<path d="M566.872 4.90277V348.097H654.556C668.925 348.097 681.661 346.3 692.764 342.704C703.868 339.109 713.338 333.879 721.176 327.015C729.014 320.151 735.055 311.326 739.3 300.54C743.546 289.754 745.669 277.007 745.669 262.299V90.7014C745.669 75.993 743.546 63.2458 739.3 52.4597C735.055 41.6736 729.014 32.8486 721.176 25.9847C713.338 18.794 703.868 13.5644 692.764 10.2958C681.661 6.70046 668.925 4.90277 654.556 4.90277H566.872ZM645.249 73.0514H654.556C656.515 73.0514 658.311 73.3782 659.944 74.032C661.577 74.3588 662.883 75.1759 663.863 76.4833C665.169 77.4639 665.986 79.0982 666.312 81.3861C666.965 83.3472 667.292 85.962 667.292 89.2306V263.769C667.292 267.038 666.965 269.816 666.312 272.104C665.986 274.065 665.169 275.7 663.863 277.007C662.883 277.988 661.577 278.805 659.944 279.458C658.311 279.785 656.515 279.949 654.556 279.949H645.249V73.0514Z" fill="white"/>
<path d="M756.296 4.90277V262.299C756.296 277.334 758.255 290.571 762.174 302.011C766.093 313.124 771.808 322.603 779.319 330.447C786.83 337.965 795.974 343.685 806.751 347.607C817.854 351.202 830.427 353 844.47 353C858.512 353 871.085 351.039 882.189 347.117C893.618 343.194 903.089 337.475 910.6 329.957C918.438 322.439 924.316 313.124 928.235 302.011C932.48 290.571 934.603 277.334 934.603 262.299V4.90277H856.226V268.672C856.226 271.614 855.9 274.065 855.247 276.026C854.92 277.988 854.267 279.622 853.287 280.929C852.307 282.237 851.164 283.217 849.858 283.871C848.552 284.525 847.082 284.851 845.449 284.851C844.143 284.851 842.674 284.525 841.041 283.871C839.735 283.217 838.592 282.237 837.612 280.929C836.959 279.622 836.306 277.988 835.652 276.026C834.999 274.065 834.673 271.614 834.673 268.672V4.90277H756.296Z" fill="white"/>
<path d="M1024.12 4.90277H945.743V348.097H1024.12V210.329H1030.49L1045.67 348.097H1128.95L1094.66 176.5L1126.5 4.90277H1043.71L1030.49 142.671H1024.12V4.90277Z" fill="white"/>
<path d="M1305.14 4.90277H1132.71V73.0514H1179.73V348.097H1258.11V73.0514H1305.14V4.90277Z" fill="white"/>
<path d="M1309.69 4.90277L1358.68 253.964V348.097H1437.06V253.964L1488 4.90277H1409.62L1401.3 145.613H1396.4L1388.07 4.90277H1309.69Z" fill="white"/>
</svg>
