<svg width="743" height="2012" viewBox="0 0 743 2012" fill="none" xmlns="http://www.w3.org/2000/svg">
<path d="M43.2122 0C17.0651 44.6403 0 97.5959 0 160C0 271.888 52.2959 355.485 115.389 416.156C174.942 473.425 250.467 516.354 310.778 549.872C316.826 553.233 322.726 556.504 328.48 559.693C386.397 591.801 429.598 615.75 461.594 642.05C493.218 668.045 493.043 679.591 493.002 682.272L493.002 682.275C493.001 682.359 493 682.434 493 682.5C493 686.699 492.114 701.49 457.681 732.258C422.209 763.954 372.161 794.18 307.291 833.016L304.727 834.552C246.134 869.626 174.021 912.795 117.465 964.753C58.6471 1018.79 0 1097.43 0 1205C0 1313.64 59.7406 1391.18 119.653 1443.68C174.087 1491.37 243.198 1530.91 299.496 1563.13C302.823 1565.03 306.105 1566.91 309.337 1568.76C373.488 1605.53 422.298 1634.64 456.385 1665.97C487.772 1694.81 493 1713.02 493 1727.5C493 1740.76 488.984 1756.29 459.165 1782.1C425.483 1811.25 377.635 1837.37 312.014 1872.87L310.128 1873.9C251.53 1905.6 176.791 1946.04 117.986 1999.45C113.511 2003.52 109.081 2007.7 104.711 2012H569.175C587.864 1999.25 605.997 1985.65 622.773 1971.13C685.391 1916.93 743 1838.15 743 1727.5C743 1618.06 686.603 1538 625.553 1481.9C567.604 1428.64 493.787 1386.33 434.887 1352.57L433.663 1351.87C368.332 1314.42 319.196 1286.13 284.409 1255.65C251.884 1227.15 250 1212.35 250 1205C250 1196.57 252.978 1179.74 286.598 1148.86C321.651 1116.65 371.501 1085.95 435.709 1047.51C436.714 1046.91 437.724 1046.31 438.739 1045.7C440.202 1044.82 441.673 1043.94 443.153 1043.06L443.705 1042.73C500.667 1008.66 569.864 967.281 624.257 918.678C682.261 866.848 743 789.65 743 682.5C743 573.342 680.155 498.086 620.344 448.922C569.373 407.024 504.719 371.364 451.402 341.956L451.366 341.936C444.797 338.313 438.4 334.784 432.222 331.351C369.283 296.373 321.558 267.578 288.674 235.956C259.329 207.737 250 185.276 250 160C250 139.719 257.097 120.829 286.077 94.506C319.076 64.5318 366.61 37.584 430.986 2.75055C432.668 1.84088 434.364 0.92405 436.074 0H43.2122Z" fill="#27272A"/>
</svg>
