<svg width="489" height="2062" viewBox="0 0 489 2062" fill="none" xmlns="http://www.w3.org/2000/svg">
<path d="M324.464 0C324.464 10.4686 321.821 22.7243 302.196 43.0948C280.029 66.1038 248.538 86.7165 205.35 114.741L204.108 115.547C165.542 140.57 116.354 172.487 77.6513 214.646C35.8869 260.141 0 324.356 0 412.4H82.2678H164.536C164.536 396.393 169.207 381.483 188.279 360.707C209.998 337.049 241.282 315.779 283.651 288.286C285.749 286.924 287.883 285.542 290.049 284.14L290.091 284.112C327.071 260.167 373.357 230.196 409.873 192.293C451.085 149.517 489 87.3337 489 0H324.464Z" fill="#27272A"/>
<path d="M0 412.4C0 500.712 34.4181 566.693 75.9421 614.58C115.137 659.781 164.843 693.664 204.536 720.119C208.517 722.772 212.399 725.353 216.186 727.871C254.304 753.213 282.737 772.115 303.795 792.873C324.608 813.391 324.493 822.504 324.466 824.62L324.466 824.627C324.465 824.691 324.464 824.749 324.464 824.8C324.464 828.115 323.881 839.789 301.219 864.073C277.874 889.09 244.935 912.947 202.242 943.6L200.554 944.812C161.992 972.496 114.531 1006.57 77.3084 1047.58C38.5982 1090.23 0 1152.3 0 1237.2C0 1322.95 39.3178 1384.15 78.749 1425.58C114.574 1463.23 160.059 1494.44 197.111 1519.86C199.301 1521.36 201.461 1522.85 203.588 1524.31C245.809 1553.33 277.933 1576.31 300.366 1601.03C321.023 1623.8 324.464 1638.17 324.464 1649.6C324.464 1660.07 321.821 1672.32 302.196 1692.69C280.029 1715.7 248.538 1736.32 205.35 1764.34L204.108 1765.15L204.107 1765.15C165.541 1790.17 116.353 1822.09 77.6513 1864.25C35.8869 1909.74 0 1973.96 0 2062H164.536C164.536 2045.99 169.207 2031.08 188.279 2010.31C209.998 1986.65 241.282 1965.38 283.651 1937.89C285.728 1936.54 287.84 1935.17 289.984 1933.78L290.091 1933.71L290.093 1933.71C327.072 1909.77 373.357 1879.8 409.873 1841.89C451.085 1799.12 489 1736.93 489 1649.6C489 1563.22 451.883 1500.03 411.703 1455.75C373.564 1413.71 324.983 1380.32 286.218 1353.67L285.412 1353.12C242.415 1323.56 210.077 1301.23 187.182 1277.17C165.776 1254.68 164.536 1243 164.536 1237.2C164.536 1230.55 166.496 1217.26 188.622 1192.89C211.692 1167.47 244.501 1143.24 286.758 1112.9C287.923 1112.06 289.096 1111.22 290.278 1110.37L292.021 1109.12C329.51 1082.24 375.052 1049.57 410.85 1011.21C449.025 970.302 489 909.372 489 824.8C489 738.644 447.639 679.245 408.275 640.441C374.729 607.372 332.177 579.226 297.087 556.015C292.755 553.149 288.537 550.359 284.464 547.644C243.041 520.037 211.631 497.31 189.989 472.351C170.676 450.078 164.536 432.35 164.536 412.4H82.2678H0Z" fill="#27272A"/>
</svg>
