<svg width="392" height="1003" viewBox="0 0 392 1003" fill="none" xmlns="http://www.w3.org/2000/svg">
<path d="M0 1002.38L284.48 946.383H392V856.783H284.48L0 798.543L0 888.143L160.72 897.663V903.263L0 912.783L0 1002.38Z" fill="black"/>
<path d="M77.84 645.623H0L0 789.543H392V645.063H314.16V699.943H225.12V646.183H147.28V699.943H77.84L77.84 645.623Z" fill="black"/>
<path d="M0 633.137H392V543.537H246.96V534.577C246.96 528.604 248.453 524.684 251.44 522.817C254.053 520.577 258.907 519.457 266 519.457H311.36C326.667 519.457 341.04 519.271 354.48 518.897C367.547 518.151 380.053 516.471 392 513.857V424.257C380.053 426.497 367.733 427.991 355.04 428.737C342.347 429.484 328.16 429.857 312.48 429.857H307.44C292.507 429.857 279.253 431.724 267.68 435.457C256.107 438.817 246.213 443.297 238 448.897C229.787 454.124 223.44 460.284 218.96 467.377C214.107 474.097 211.493 480.63 211.12 486.977H204.96C204.587 480.63 202.347 474.097 198.24 467.377C194.133 460.284 187.973 454.124 179.76 448.897C171.547 443.297 161.467 438.817 149.52 435.457C137.573 431.724 123.573 429.857 107.52 429.857H104.72C69.2533 429.857 42.9333 438.817 25.76 456.737C8.58667 474.657 0 500.231 0 533.457L0 633.137ZM77.84 543.537V534.577C77.84 528.604 79.3333 524.684 82.32 522.817C84.9334 520.577 89.7867 519.457 96.88 519.457H149.52C156.987 519.457 162.213 520.577 165.2 522.817C167.813 524.684 169.12 528.604 169.12 534.577V543.537H77.84Z" fill="black"/>
<path d="M0 416.028H392V316.348C392 282.001 383.6 255.308 366.8 236.268C349.627 216.854 325.733 207.148 295.12 207.148H288.4C273.84 207.148 260.96 209.201 249.76 213.308C238.56 217.414 228.853 222.641 220.64 228.988C212.427 234.961 206.08 241.681 201.6 249.148C197.12 256.614 194.693 263.708 194.32 270.428H188.72C188.347 263.708 186.293 256.988 182.56 250.268C178.453 243.174 172.667 237.014 165.2 231.788C157.733 226.188 148.4 221.708 137.2 218.348C126 214.988 113.307 213.308 99.12 213.308H96.32C65.3334 213.308 41.6267 222.268 25.2 240.188C8.4 258.108 0 283.681 0 316.908L0 416.028ZM77.84 326.428V318.028C77.84 312.054 79.1467 308.134 81.76 306.268C84.3733 304.028 89.2267 302.908 96.32 302.908H133.84C141.307 302.908 146.347 304.028 148.96 306.268C151.573 308.134 152.88 312.054 152.88 318.028V326.428H77.84ZM230.72 326.428V317.468C230.72 311.121 232.027 306.828 234.64 304.588C237.253 302.348 242.293 301.228 249.76 301.228H295.12C302.587 301.228 307.627 302.348 310.24 304.588C312.853 306.828 314.16 311.121 314.16 317.468V326.428H230.72Z" fill="black"/>
<path d="M0 173.04L392 208.32V118.72L154.56 106.96V101.36L392 89.6003V0.000305176L0 33.6003L0 173.04ZM302.96 73.9203H225.12V136.64H302.96V73.9203Z" fill="black"/>
</svg>
