<svg width="1192" height="369" viewBox="0 0 1192 369" fill="none" xmlns="http://www.w3.org/2000/svg">
<path d="M0.144043 4.60019H105.616L115.856 220.664H121.488L131.728 4.60019H236.688V363H161.424L170.64 148.472H165.008L144.016 363H92.816L71.312 148.472H65.68L75.4081 363H0.144043V4.60019Z" fill="black"/>
<path d="M276.804 4.0882H404.292L435.012 363H353.092L348.996 281.592H330.564L326.468 363H244.548L276.804 4.0882ZM333.636 210.424H345.412L342.34 145.912H337.22L333.636 210.424Z" fill="black"/>
<path d="M600.796 4.60019V75.7682H551.644V363H469.724V75.7682H420.06V4.60019H600.796Z" fill="black"/>
<path d="M690.552 88.0562V280.056C690.552 292.344 696.184 296.952 702.84 296.952C708.984 296.952 714.616 292.344 714.616 280.056V193.528H796.536V273.912C796.536 335.352 760.184 368.12 701.304 368.12C642.936 368.12 608.632 336.376 608.632 273.912V93.6882C608.632 31.2242 642.936 -0.0078125 701.304 -0.0078125C760.184 -0.0078125 796.536 32.7602 796.536 93.6882V174.584H714.616V88.0562C714.616 75.2562 708.984 70.6482 702.84 70.6482C696.184 70.6482 690.552 75.2562 690.552 88.0562Z" fill="black"/>
<path d="M912.08 4.0882H993.488V363H912.08V214.52H890.064V363H808.144V4.0882H890.064V143.352H912.08V4.0882Z" fill="black"/>
<path d="M1033.3 4.0882H1160.79L1191.51 363H1109.59L1105.5 281.592H1087.06L1082.97 363H1001.05L1033.3 4.0882ZM1090.14 210.424H1101.91L1098.84 145.912H1093.72L1090.14 210.424Z" fill="black"/>
</svg>
