<svg width="370" height="1278" viewBox="0 0 370 1278" fill="none" xmlns="http://www.w3.org/2000/svg">
<path d="M5.08798 1277.86V1186.21C5.08798 1126.82 36.832 1092 101.344 1092H103.392C162.272 1092 191.456 1120.67 192.992 1144.22H198.624C200.16 1121.18 232.928 1092 286.688 1092H290.784C319.968 1092 342.496 1091.49 364 1086.88V1168.29C341.984 1172.9 317.92 1173.41 290.272 1173.41H248.8C236 1173.41 231.392 1176.99 231.392 1187.23V1195.94H364V1277.86H5.08798ZM76.256 1195.94H160.224V1187.23C160.224 1176.99 155.104 1173.41 142.304 1173.41H93.664C81.376 1173.41 76.256 1176.99 76.256 1187.23V1195.94Z" fill="black"/>
<path d="M94.688 1079.87C32.224 1079.87 0.47998 1045.56 0.47998 987.197C0.47998 928.317 33.248 891.965 94.688 891.965H274.4C336.352 891.965 369.12 928.317 369.12 987.197C369.12 1045.56 336.864 1079.87 274.4 1079.87H94.688ZM88.544 997.949H281.056C293.344 997.949 297.952 992.317 297.952 986.173C297.952 979.517 293.344 973.885 281.056 973.885H88.544C75.744 973.885 71.648 979.517 71.648 986.173C71.648 992.317 75.744 997.949 88.544 997.949Z" fill="black"/>
<path d="M94.688 880.869C32.224 880.869 0.47998 846.565 0.47998 788.197C0.47998 729.317 33.248 692.965 94.688 692.965H274.4C336.352 692.965 369.12 729.317 369.12 788.197C369.12 846.565 336.864 880.869 274.4 880.869H94.688ZM88.544 798.949H281.056C293.344 798.949 297.952 793.317 297.952 787.173C297.952 780.517 293.344 774.885 281.056 774.885H88.544C75.744 774.885 71.648 780.517 71.648 787.173C71.648 793.317 75.744 798.949 88.544 798.949Z" fill="black"/>
<path d="M5.59998 681.357V599.437H364V681.357H5.59998Z" fill="black"/>
<path d="M5.59998 587.857V497.233C5.59998 436.817 36.832 402.513 93.664 402.513H96.224C148.96 402.513 176.608 430.161 178.144 454.225H183.776C184.8 430.673 217.056 396.369 269.28 396.369H275.424C331.232 396.369 364 434.257 364 496.721V587.857H5.59998ZM76.256 505.937H145.376V498.257C145.376 487.505 140.768 484.433 127.968 484.433H93.664C80.864 484.433 76.256 487.505 76.256 498.257V505.937ZM216.544 505.937H292.832V497.233C292.832 486.481 288.736 482.897 275.424 482.897H233.952C221.152 482.897 216.544 486.481 216.544 497.745V505.937Z" fill="black"/>
<path d="M94.688 387.369C32.224 387.369 0.47998 353.065 0.47998 294.697C0.47998 235.817 33.248 199.465 94.688 199.465H274.4C336.352 199.465 369.12 235.817 369.12 294.697C369.12 353.065 336.864 387.369 274.4 387.369H94.688ZM88.544 305.449H281.056C293.344 305.449 297.952 299.817 297.952 293.673C297.952 287.017 293.344 281.385 281.056 281.385H88.544C75.744 281.385 71.648 287.017 71.648 293.673C71.648 299.817 75.744 305.449 88.544 305.449Z" fill="black"/>
<path d="M130.528 0.976852V82.8969H88.544C77.792 82.8969 71.648 86.9929 71.648 94.1609C71.648 101.841 77.792 105.937 88.544 105.937H115.168C133.088 105.937 138.208 102.865 159.2 63.4408L166.368 48.0808C185.312 11.2168 208.864 0.464844 267.232 0.464844H274.4C334.816 0.464844 369.12 35.2809 369.12 95.6969C369.12 155.601 335.84 188.369 274.4 188.369H239.072V106.449H280.544C291.808 106.449 297.952 101.841 297.952 94.1609C297.952 86.4809 291.808 82.3848 281.056 82.3848H253.408C234.976 82.3848 230.368 85.4568 211.424 121.809L202.72 139.729C183.776 176.593 157.664 187.857 99.808 187.857H94.688C33.248 187.857 0.47998 155.089 0.47998 95.6969C0.47998 35.7928 34.784 0.976852 94.688 0.976852H130.528Z" fill="black"/>
</svg>
