<svg width="1488" height="417" viewBox="0 0 1488 417" fill="none" xmlns="http://www.w3.org/2000/svg">
<path d="M0 106.567V309.854C0 327.615 2.31638 343.253 6.94915 356.767C11.968 369.894 18.9171 381.092 27.7966 390.358C36.6761 399.239 47.4859 405.996 60.226 410.629C73.3521 414.876 88.2156 417 104.816 417C121.417 417 136.281 414.683 149.407 410.05C162.919 405.417 174.308 398.66 183.573 389.779C192.839 380.899 199.981 369.894 205 356.767C210.019 343.253 212.528 327.615 212.528 309.854V106.567C212.528 89.1917 210.019 73.9403 205 60.8125C199.981 47.2986 192.839 36.1014 183.573 27.2208C174.308 18.3403 162.919 11.5833 149.407 6.95001C136.281 2.31667 121.417 0 104.816 0C88.2156 0 73.3521 2.31667 60.226 6.95001C47.4859 11.1972 36.6761 17.7611 27.7966 26.6417C18.9171 35.5222 11.968 46.7194 6.94915 60.2333C2.31638 73.3611 0 88.8056 0 106.567ZM92.6553 99.6166C92.6553 95.7555 93.0414 92.6667 93.8135 90.35C94.5856 88.0333 95.5508 86.1028 96.709 84.5583C97.8672 83.0139 99.2184 82.0486 100.763 81.6625C102.693 80.8903 104.43 80.5042 105.975 80.5042C108.291 80.5042 110.221 80.8903 111.765 81.6625C113.31 82.0486 114.661 83.0139 115.819 84.5583C116.977 86.1028 117.942 88.0333 118.715 90.35C119.487 92.6667 119.873 95.7555 119.873 99.6166V317.383C119.873 320.858 119.487 323.754 118.715 326.071C117.942 328.387 116.977 330.318 115.819 331.862C114.661 333.407 113.31 334.565 111.765 335.337C110.221 336.11 108.291 336.496 105.975 336.496C104.43 336.496 102.693 336.11 100.763 335.337C99.2184 334.565 97.8672 333.407 96.709 331.862C95.5508 330.318 94.5856 328.387 93.8135 326.071C93.0414 323.754 92.6553 320.858 92.6553 317.383V99.6166Z" fill="black"/>
<path d="M225.657 5.79166V411.208H318.313V261.204H327.578C333.755 261.204 337.809 262.749 339.739 265.837C342.056 268.54 343.214 273.56 343.214 280.896V327.808C343.214 343.639 343.407 358.504 343.793 372.404C344.565 385.918 346.302 398.853 349.005 411.208H441.66C439.344 398.853 437.799 386.111 437.027 372.983C436.255 359.856 435.869 345.183 435.869 328.967V323.754C435.869 308.31 433.939 294.603 430.078 282.633C426.604 270.664 421.971 260.432 416.18 251.937C410.775 243.443 404.405 236.879 397.07 232.246C390.121 227.226 383.364 224.524 376.801 224.137V217.767C383.364 217.381 390.121 215.064 397.07 210.817C404.405 206.569 410.775 200.199 416.18 191.704C421.971 183.21 426.604 172.785 430.078 160.429C433.939 148.074 435.869 133.594 435.869 116.992V114.096C435.869 77.4153 426.604 50.1944 408.072 32.4333C389.541 14.6722 363.096 5.79166 328.736 5.79166H225.657ZM318.313 86.2958H327.578C333.755 86.2958 337.809 87.8403 339.739 90.9292C342.056 93.632 343.214 98.6514 343.214 105.988V160.429C343.214 168.151 342.056 173.557 339.739 176.646C337.809 179.349 333.755 180.7 327.578 180.7H318.313V86.2958Z" fill="black"/>
<path d="M450.17 5.79166V411.208H542.825V5.79166H450.17Z" fill="black"/>
<path d="M647.999 99.6166C647.999 95.7555 648.385 92.6667 649.157 90.35C649.929 88.0333 650.895 86.1028 652.053 84.5583C653.211 83.0139 654.562 82.0486 656.106 81.6625C658.037 80.8903 659.774 80.5042 661.318 80.5042C663.635 80.5042 665.565 80.8903 667.109 81.6625C668.653 82.0486 670.005 83.0139 671.163 84.5583C672.321 86.1028 673.286 88.0333 674.058 90.35C674.831 92.6667 675.217 95.7555 675.217 99.6166V171.433H767.872V106.567C767.872 89.1917 765.362 73.9403 760.344 60.8125C755.325 47.2986 748.183 36.1014 738.917 27.2208C729.651 18.3403 718.263 11.5833 704.75 6.95001C691.624 2.31667 676.761 0 660.16 0C643.559 0 628.696 2.31667 615.57 6.95001C602.83 11.1972 592.02 17.7611 583.14 26.6417C574.261 35.5222 567.312 46.7194 562.293 60.2333C557.66 73.3611 555.344 88.8056 555.344 106.567V309.854C555.344 329.16 557.66 345.569 562.293 359.083C567.312 372.211 573.682 383.215 581.403 392.096C589.124 400.59 597.811 406.961 607.462 411.208C617.5 415.069 627.345 417 636.996 417C650.895 417 663.635 413.525 675.217 406.575C686.798 399.239 694.52 388.621 698.38 374.721H704.75V411.208H767.872V187.071H658.423V247.304H675.217V312.75C675.217 316.611 674.637 320.086 673.479 323.175C672.707 326.264 671.742 328.774 670.584 330.704C669.426 332.635 667.881 334.179 665.951 335.337C664.407 336.11 662.669 336.496 660.739 336.496C658.809 336.496 657.072 336.11 655.527 335.337C653.983 334.565 652.632 333.407 651.474 331.862C650.701 330.318 649.929 328.387 649.157 326.071C648.385 323.368 647.999 320.472 647.999 317.383V99.6166Z" fill="black"/>
<path d="M781.001 5.79166V411.208H873.656V5.79166H781.001Z" fill="black"/>
<path d="M1013 5.79166L1035.58 250.2H1030.37L986.937 5.79166H886.754V411.208H979.409L958.562 168.537H963.774L1004.89 411.208H1105.65V5.79166H1013Z" fill="black"/>
<path d="M1151.03 5.79166L1114.55 411.208H1207.21L1219.37 165.642H1225.16L1237.32 411.208H1329.97L1295.23 5.79166H1151.03ZM1253.53 319.121V238.617H1188.68V319.121H1253.53Z" fill="black"/>
<path d="M1339.17 5.79166V411.208H1488V330.704H1431.83V5.79166H1339.17Z" fill="black"/>
</svg>
