<svg width="369" height="1192" viewBox="0 0 369 1192" fill="none" xmlns="http://www.w3.org/2000/svg">
<path d="M4.60019 1191.86V1086.38L220.664 1076.14V1070.51L4.60019 1060.27V955.312H363V1030.58L148.472 1021.36V1026.99L363 1047.98V1099.18L148.472 1120.69V1126.32L363 1116.59V1191.86H4.60019Z" fill="black"/>
<path d="M4.0882 915.196V787.708L363 756.988V838.908L281.592 843.004V861.436L363 865.532V947.452L4.0882 915.196ZM210.424 858.364V846.588L145.912 849.66V854.78L210.424 858.364Z" fill="black"/>
<path d="M4.60019 591.204H75.7682V640.356H363V722.276H75.7682V771.94H4.60019V591.204Z" fill="black"/>
<path d="M88.0562 501.448H280.056C292.344 501.448 296.952 495.816 296.952 489.16C296.952 483.016 292.344 477.384 280.056 477.384H193.528V395.464H273.912C335.352 395.464 368.12 431.816 368.12 490.696C368.12 549.064 336.376 583.368 273.912 583.368H93.6882C31.2242 583.368 -0.0078125 549.064 -0.0078125 490.696C-0.0078125 431.816 32.7602 395.464 93.6882 395.464H174.584V477.384H88.0562C75.2562 477.384 70.6482 483.016 70.6482 489.16C70.6482 495.816 75.2562 501.448 88.0562 501.448Z" fill="black"/>
<path d="M4.0882 279.92V198.512H363V279.92H214.52V301.936H363V383.856H4.0882V301.936H143.352V279.92H4.0882Z" fill="black"/>
<path d="M4.0882 158.696V31.2083L363 0.488281V82.4083L281.592 86.5043V104.936L363 109.032V190.952L4.0882 158.696ZM210.424 101.864V90.0883L145.912 93.1603V98.2803L210.424 101.864Z" fill="black"/>
</svg>
