<svg width="982" height="594" viewBox="0 0 982 594" fill="none" xmlns="http://www.w3.org/2000/svg">
<path d="M0 119.884V594H98.9844L86.7809 310.208H94.2386L122.036 594H190.511L218.308 310.208H225.766L213.562 594H313.225V119.884H174.24L160.68 405.708H153.222L139.663 119.884H0Z" fill="black"/>
<path d="M366.345 119.884L323.633 594H432.109L446.346 306.821H453.126L467.364 594H575.84L535.161 119.884H366.345ZM486.347 486.308V392.162H410.414V486.308H486.347Z" fill="black"/>
<path d="M794.688 119.884H556.041V214.03H621.126V594H729.602V214.03H794.688V119.884Z" fill="black"/>
<path d="M981.322 214.03V119.884H807.082V594H982V499.854H915.558V392.162H980.644V298.016H915.558V214.03H981.322ZM925.728 92.7913L959.627 0H880.982L858.608 92.7913H925.728Z" fill="black"/>
</svg>
