<svg width="1278" height="370" viewBox="0 0 1278 370" fill="none" xmlns="http://www.w3.org/2000/svg">
<path d="M0.144043 5.08847H91.7921C151.184 5.08847 186 36.8325 186 101.344V103.392C186 162.272 157.328 191.456 133.776 192.992V198.624C156.816 200.16 186 232.928 186 286.688V290.784C186 319.968 186.512 342.496 191.12 364H109.712C105.104 341.984 104.592 317.92 104.592 290.272V248.8C104.592 236 101.008 231.392 90.7681 231.392H82.064V364H0.144043V5.08847ZM82.064 76.2565V160.224H90.7681C101.008 160.224 104.592 155.104 104.592 142.304V93.6645C104.592 81.3765 101.008 76.2565 90.7681 76.2565H82.064Z" fill="black"/>
<path d="M198.132 94.6885C198.132 32.2245 232.436 0.480469 290.804 0.480469C349.684 0.480469 386.036 33.2485 386.036 94.6885V274.4C386.036 336.352 349.684 369.12 290.804 369.12C232.436 369.12 198.132 336.864 198.132 274.4V94.6885ZM280.052 88.5445V281.056C280.052 293.344 285.684 297.952 291.828 297.952C298.484 297.952 304.116 293.344 304.116 281.056V88.5445C304.116 75.7445 298.484 71.6485 291.828 71.6485C285.684 71.6485 280.052 75.7445 280.052 88.5445Z" fill="black"/>
<path d="M397.132 94.6885C397.132 32.2245 431.436 0.480469 489.804 0.480469C548.684 0.480469 585.036 33.2485 585.036 94.6885V274.4C585.036 336.352 548.684 369.12 489.804 369.12C431.436 369.12 397.132 336.864 397.132 274.4V94.6885ZM479.052 88.5445V281.056C479.052 293.344 484.684 297.952 490.828 297.952C497.484 297.952 503.116 293.344 503.116 281.056V88.5445C503.116 75.7445 497.484 71.6485 490.828 71.6485C484.684 71.6485 479.052 75.7445 479.052 88.5445Z" fill="black"/>
<path d="M596.644 5.60046H678.564V364H596.644V5.60046Z" fill="black"/>
<path d="M690.144 5.60046H780.768C841.184 5.60046 875.488 36.8325 875.488 93.6645V96.2245C875.488 148.96 847.84 176.608 823.776 178.144V183.776C847.328 184.8 881.632 217.056 881.632 269.28V275.424C881.632 331.233 843.744 364 781.28 364H690.144V5.60046ZM772.064 76.2565V145.376H779.744C790.496 145.376 793.568 140.768 793.568 127.968V93.6645C793.568 80.8645 790.496 76.2565 779.744 76.2565H772.064ZM772.064 216.544V292.832H780.768C791.52 292.832 795.104 288.737 795.104 275.424V233.952C795.104 221.152 791.52 216.544 780.256 216.544H772.064Z" fill="black"/>
<path d="M890.632 94.6885C890.632 32.2245 924.936 0.480469 983.304 0.480469C1042.18 0.480469 1078.54 33.2485 1078.54 94.6885V274.4C1078.54 336.352 1042.18 369.12 983.304 369.12C924.936 369.12 890.632 336.864 890.632 274.4V94.6885ZM972.552 88.5445V281.056C972.552 293.344 978.184 297.952 984.328 297.952C990.984 297.952 996.616 293.344 996.616 281.056V88.5445C996.616 75.7445 990.984 71.6485 984.328 71.6485C978.184 71.6485 972.552 75.7445 972.552 88.5445Z" fill="black"/>
<path d="M1277.02 130.528H1195.1V88.5445C1195.1 77.7925 1191.01 71.6485 1183.84 71.6485C1176.16 71.6485 1172.06 77.7925 1172.06 88.5445V115.168C1172.06 133.088 1175.14 138.208 1214.56 159.2L1229.92 166.368C1266.78 185.312 1277.54 208.864 1277.54 267.232V274.4C1277.54 334.816 1242.72 369.12 1182.3 369.12C1122.4 369.12 1089.63 335.84 1089.63 274.4V239.072H1171.55V280.544C1171.55 291.808 1176.16 297.952 1183.84 297.952C1191.52 297.952 1195.62 291.808 1195.62 281.056V253.408C1195.62 234.976 1192.54 230.368 1156.19 211.424L1138.27 202.72C1101.41 183.776 1090.14 157.664 1090.14 99.8085V94.6885C1090.14 33.2485 1122.91 0.480469 1182.3 0.480469C1242.21 0.480469 1277.02 34.7845 1277.02 94.6885V130.528Z" fill="black"/>
</svg>
