<svg width="982" height="475" viewBox="0 0 982 475" fill="none" xmlns="http://www.w3.org/2000/svg">
<path d="M0 0.883789V475H98.9844L86.7809 191.208H94.2386L122.036 475H190.511L218.308 191.208H225.766L213.562 475H313.225V0.883789H174.24L160.68 286.708H153.222L139.663 0.883789H0Z" fill="black"/>
<path d="M366.345 0.883789L323.633 475H432.109L446.346 187.821H453.126L467.364 475H575.84L535.161 0.883789H366.345ZM486.347 367.308V273.162H410.414V367.308H486.347Z" fill="black"/>
<path d="M794.688 0.883789H556.041V95.0297H621.126V475H729.602V95.0297H794.688V0.883789Z" fill="black"/>
<path d="M981.322 95.0297V0.883789H807.082V475H982V380.854H915.558V273.162H980.644V179.016H915.558V95.0297H981.322Z" fill="black"/>
</svg>
