<svg width="1487" height="353" viewBox="0 0 1487 353" fill="none" xmlns="http://www.w3.org/2000/svg">
<path d="M0.868164 5.70054V348.001H79.1082V242.866H86.9322C102.58 242.866 116.109 240.91 127.519 236.998C138.929 232.76 148.383 226.24 155.881 217.438C163.705 208.636 169.41 196.9 172.996 182.23C176.582 167.56 178.375 149.467 178.375 127.951V126.973C178.375 84.9186 170.551 54.2745 154.903 35.0405C139.255 15.4805 116.924 5.70054 87.9102 5.70054H0.868164ZM79.1082 73.6715H86.9322C92.4742 73.6715 96.0602 75.1385 97.6902 78.0725C99.3202 80.6805 100.135 85.4076 100.135 92.2536V156.802C100.135 163.648 99.3202 168.375 97.6902 170.983C96.0602 173.591 92.4742 174.895 86.9322 174.895H79.1082V73.6715Z" fill="white"/>
<path d="M187.108 5.70054V348.001H265.348V221.35H273.172C278.388 221.35 281.811 222.654 283.441 225.262C285.397 227.544 286.375 231.782 286.375 237.976V277.585C286.375 290.951 286.538 303.502 286.864 315.238C287.516 326.648 288.983 337.569 291.265 348.001H369.505C367.549 337.569 366.245 326.811 365.593 315.727C364.941 304.643 364.615 292.255 364.615 278.563V274.162C364.615 261.122 362.985 249.549 359.725 239.443C356.791 229.337 352.879 220.698 347.989 213.526C343.425 206.354 338.046 200.812 331.852 196.9C325.984 192.662 320.279 190.38 314.737 190.054V184.675C320.279 184.349 325.984 182.393 331.852 178.807C338.046 175.221 343.425 169.842 347.989 162.67C352.879 155.498 356.791 146.696 359.725 136.264C362.985 125.832 364.615 113.607 364.615 99.5886V97.1436C364.615 66.1736 356.791 43.1905 341.143 28.1945C325.495 13.1985 303.164 5.70054 274.15 5.70054H187.108ZM265.348 73.6715H273.172C278.388 73.6715 281.811 74.9755 283.441 77.5835C285.397 79.8656 286.375 84.1036 286.375 90.2976V136.264C286.375 142.784 285.397 147.348 283.441 149.956C281.811 152.238 278.388 153.379 273.172 153.379H265.348V73.6715Z" fill="white"/>
<path d="M376.202 90.7866V262.426C376.202 277.422 378.158 290.625 382.07 302.035C386.308 313.119 392.176 322.573 399.674 330.397C407.172 337.895 416.3 343.6 427.058 347.512C438.142 351.098 450.693 352.891 464.711 352.891C478.729 352.891 491.28 350.935 502.364 347.023C513.774 343.111 523.391 337.406 531.215 329.908C539.039 322.41 545.07 313.119 549.308 302.035C553.546 290.625 555.665 277.422 555.665 262.426V90.7866C555.665 76.1165 553.546 63.2395 549.308 52.1556C545.07 40.7455 539.039 31.2915 531.215 23.7935C523.391 16.2955 513.774 10.5905 502.364 6.67856C491.28 2.76655 478.729 0.810547 464.711 0.810547C450.693 0.810547 438.142 2.76655 427.058 6.67856C416.3 10.2646 407.172 15.8065 399.674 23.3045C392.176 30.8025 386.308 40.2566 382.07 51.6666C378.158 62.7506 376.202 75.7906 376.202 90.7866ZM454.442 84.9185C454.442 81.6585 454.768 79.0506 455.42 77.0946C456.072 75.1386 456.887 73.5086 457.865 72.2046C458.843 70.9006 459.984 70.0856 461.288 69.7596C462.918 69.1075 464.385 68.7815 465.689 68.7815C467.645 68.7815 469.275 69.1075 470.579 69.7596C471.883 70.0856 473.024 70.9006 474.002 72.2046C474.98 73.5086 475.795 75.1386 476.447 77.0946C477.099 79.0506 477.425 81.6585 477.425 84.9185V268.783C477.425 271.717 477.099 274.162 476.447 276.118C475.795 278.074 474.98 279.704 474.002 281.008C473.024 282.312 471.883 283.29 470.579 283.942C469.275 284.594 467.645 284.92 465.689 284.92C464.385 284.92 462.918 284.594 461.288 283.942C459.984 283.29 458.843 282.312 457.865 281.008C456.887 279.704 456.072 278.074 455.42 276.118C454.768 274.162 454.442 271.717 454.442 268.783V84.9185Z" fill="white"/>
<path d="M566.752 5.70054V348.001H654.283C668.627 348.001 681.341 346.208 692.425 342.622C703.509 339.036 712.963 333.82 720.787 326.974C728.611 320.128 734.642 311.326 738.88 300.568C743.118 289.81 745.237 277.096 745.237 262.426V91.2756C745.237 76.6055 743.118 63.8915 738.88 53.1335C734.642 42.3755 728.611 33.5736 720.787 26.7276C712.963 19.5556 703.509 14.3396 692.425 11.0796C681.341 7.49355 668.627 5.70054 654.283 5.70054H566.752ZM644.992 73.6715H654.283C656.239 73.6715 658.032 73.9975 659.662 74.6496C661.292 74.9756 662.596 75.7906 663.574 77.0946C664.878 78.0726 665.693 79.7026 666.019 81.9846C666.671 83.9405 666.997 86.5485 666.997 89.8086V263.893C666.997 267.153 666.671 269.924 666.019 272.206C665.693 274.162 664.878 275.792 663.574 277.096C662.596 278.074 661.292 278.889 659.662 279.541C658.032 279.867 656.239 280.03 654.283 280.03H644.992V73.6715Z" fill="white"/>
<path d="M755.846 5.70054V262.426C755.846 277.422 757.802 290.625 761.714 302.035C765.626 313.119 771.331 322.573 778.829 330.397C786.327 337.895 795.455 343.6 806.213 347.512C817.297 351.098 829.848 352.891 843.866 352.891C857.884 352.891 870.435 350.935 881.519 347.023C892.929 343.111 902.383 337.406 909.881 329.908C917.705 322.41 923.573 313.119 927.485 302.035C931.723 290.625 933.842 277.422 933.842 262.426V5.70054H855.602V268.783C855.602 271.717 855.276 274.162 854.624 276.118C854.298 278.074 853.646 279.704 852.668 281.008C851.69 282.312 850.549 283.29 849.245 283.942C847.941 284.594 846.474 284.92 844.844 284.92C843.54 284.92 842.073 284.594 840.443 283.942C839.139 283.29 837.998 282.312 837.02 281.008C836.368 279.704 835.716 278.074 835.064 276.118C834.412 274.162 834.086 271.717 834.086 268.783V5.70054H755.846Z" fill="white"/>
<path d="M1023.2 5.70054H944.963V348.001H1023.2V210.592H1029.56L1044.72 348.001H1127.85L1093.62 176.851L1125.4 5.70054H1042.76L1029.56 143.11H1023.2V5.70054Z" fill="white"/>
<path d="M1303.73 5.70054H1131.6V73.6715H1178.54V348.001H1256.78V73.6715H1303.73V5.70054Z" fill="white"/>
<path d="M1308.28 5.70054L1357.18 254.113V348.001H1435.42V254.113L1486.27 5.70054H1408.03L1399.72 146.044H1394.83L1386.52 5.70054H1308.28Z" fill="white"/>
</svg>
