<svg width="1003" height="392" viewBox="0 0 1003 392" fill="none" xmlns="http://www.w3.org/2000/svg">
<path d="M0 0L56 284.48V392H145.6V284.48L203.84 0H114.24L104.72 160.72H99.12L89.6 0H0Z" fill="black"/>
<path d="M356.759 77.84V0H212.839V392H357.319V314.16H302.439V225.12H356.199V147.28H302.439V77.84H356.759Z" fill="black"/>
<path d="M369.246 0V392H458.846V246.96H467.806C473.779 246.96 477.699 248.453 479.566 251.44C481.806 254.053 482.926 258.907 482.926 266V311.36C482.926 326.667 483.112 341.04 483.486 354.48C484.232 367.547 485.912 380.053 488.526 392H578.126C575.886 380.053 574.392 367.733 573.646 355.04C572.899 342.347 572.526 328.16 572.526 312.48V307.44C572.526 292.507 570.659 279.253 566.926 267.68C563.566 256.107 559.086 246.213 553.486 238C548.259 229.787 542.099 223.44 535.006 218.96C528.286 214.107 521.752 211.493 515.406 211.12V204.96C521.752 204.587 528.286 202.347 535.006 198.24C542.099 194.133 548.259 187.973 553.486 179.76C559.086 171.547 563.566 161.467 566.926 149.52C570.659 137.573 572.526 123.573 572.526 107.52V104.72C572.526 69.2533 563.566 42.9333 545.646 25.76C527.726 8.58667 502.152 0 468.926 0H369.246ZM458.846 77.84H467.806C473.779 77.84 477.699 79.3333 479.566 82.32C481.806 84.9333 482.926 89.7867 482.926 96.88V149.52C482.926 156.987 481.806 162.213 479.566 165.2C477.699 167.813 473.779 169.12 467.806 169.12H458.846V77.84Z" fill="black"/>
<path d="M586.355 0V392H686.035C720.382 392 747.075 383.6 766.115 366.8C785.528 349.627 795.235 325.733 795.235 295.12V288.4C795.235 273.84 793.182 260.96 789.075 249.76C784.968 238.56 779.742 228.853 773.395 220.64C767.422 212.427 760.702 206.08 753.235 201.6C745.768 197.12 738.675 194.693 731.955 194.32V188.72C738.675 188.347 745.395 186.293 752.115 182.56C759.208 178.453 765.368 172.667 770.595 165.2C776.195 157.733 780.675 148.4 784.035 137.2C787.395 126 789.075 113.307 789.075 99.12V96.32C789.075 65.3334 780.115 41.6267 762.195 25.2C744.275 8.4 718.702 0 685.475 0H586.355ZM675.955 77.84H684.355C690.328 77.84 694.248 79.1467 696.115 81.76C698.355 84.3733 699.475 89.2267 699.475 96.32V133.84C699.475 141.307 698.355 146.347 696.115 148.96C694.248 151.573 690.328 152.88 684.355 152.88H675.955V77.84ZM675.955 230.72H684.915C691.262 230.72 695.555 232.027 697.795 234.64C700.035 237.253 701.155 242.293 701.155 249.76V295.12C701.155 302.587 700.035 307.627 697.795 310.24C695.555 312.853 691.262 314.16 684.915 314.16H675.955V230.72Z" fill="black"/>
<path d="M829.343 0L794.062 392H883.662L895.422 154.56H901.023L912.783 392H1002.38L968.783 0H829.343ZM928.463 302.96V225.12H865.742V302.96H928.463Z" fill="black"/>
</svg>
