<svg width="1491" height="353" viewBox="0 0 1491 353" fill="none" xmlns="http://www.w3.org/2000/svg">
<path d="M0.868164 4.89V347.19H79.1082V242.055H86.9322C102.58 242.055 116.109 240.099 127.519 236.187C138.929 231.949 148.383 225.429 155.881 216.627C163.705 207.825 169.41 196.089 172.996 181.419C176.582 166.749 178.375 148.656 178.375 127.14V126.162C178.375 84.108 170.551 53.464 154.903 34.23C139.255 14.67 116.924 4.89 87.9102 4.89H0.868164ZM79.1082 72.861H86.9322C92.4742 72.861 96.0602 74.328 97.6902 77.262C99.3202 79.87 100.135 84.597 100.135 91.443V155.991C100.135 162.837 99.3202 167.564 97.6902 170.172C96.0602 172.78 92.4742 174.084 86.9322 174.084H79.1082V72.861Z" fill="black"/>
<path d="M187.108 4.89V347.19H265.348V220.539H273.172C278.388 220.539 281.811 221.843 283.441 224.451C285.397 226.733 286.375 230.971 286.375 237.165V276.774C286.375 290.14 286.538 302.691 286.864 314.427C287.516 325.837 288.983 336.758 291.265 347.19H369.505C367.549 336.758 366.245 326 365.593 314.916C364.941 303.832 364.615 291.444 364.615 277.752V273.351C364.615 260.311 362.985 248.738 359.725 238.632C356.791 228.526 352.879 219.887 347.989 212.715C343.425 205.543 338.046 200.001 331.852 196.089C325.984 191.851 320.279 189.569 314.737 189.243V183.864C320.279 183.538 325.984 181.582 331.852 177.996C338.046 174.41 343.425 169.031 347.989 161.859C352.879 154.687 356.791 145.885 359.725 135.453C362.985 125.021 364.615 112.796 364.615 98.778V96.333C364.615 65.363 356.791 42.38 341.143 27.384C325.495 12.388 303.164 4.89 274.15 4.89H187.108ZM265.348 72.861H273.172C278.388 72.861 281.811 74.165 283.441 76.773C285.397 79.055 286.375 83.293 286.375 89.487V135.453C286.375 141.973 285.397 146.537 283.441 149.145C281.811 151.427 278.388 152.568 273.172 152.568H265.348V72.861Z" fill="black"/>
<path d="M376.202 89.976V261.615C376.202 276.611 378.158 289.814 382.07 301.224C386.308 312.308 392.176 321.762 399.674 329.586C407.172 337.084 416.3 342.789 427.058 346.701C438.142 350.287 450.693 352.08 464.711 352.08C478.729 352.08 491.28 350.124 502.364 346.212C513.774 342.3 523.391 336.595 531.215 329.097C539.039 321.599 545.07 312.308 549.308 301.224C553.546 289.814 555.665 276.611 555.665 261.615V89.976C555.665 75.306 553.546 62.429 549.308 51.345C545.07 39.935 539.039 30.481 531.215 22.983C523.391 15.485 513.774 9.78 502.364 5.86801C491.28 1.956 478.729 0 464.711 0C450.693 0 438.142 1.956 427.058 5.86801C416.3 9.454 407.172 14.996 399.674 22.494C392.176 29.992 386.308 39.446 382.07 50.856C378.158 61.94 376.202 74.98 376.202 89.976ZM454.442 84.108C454.442 80.848 454.768 78.24 455.42 76.284C456.072 74.328 456.887 72.698 457.865 71.394C458.843 70.09 459.984 69.275 461.288 68.949C462.918 68.297 464.385 67.971 465.689 67.971C467.645 67.971 469.275 68.297 470.579 68.949C471.883 69.275 473.024 70.09 474.002 71.394C474.98 72.698 475.795 74.328 476.447 76.284C477.099 78.24 477.425 80.848 477.425 84.108V267.972C477.425 270.906 477.099 273.351 476.447 275.307C475.795 277.263 474.98 278.893 474.002 280.197C473.024 281.501 471.883 282.479 470.579 283.131C469.275 283.783 467.645 284.109 465.689 284.109C464.385 284.109 462.918 283.783 461.288 283.131C459.984 282.479 458.843 281.501 457.865 280.197C456.887 278.893 456.072 277.263 455.42 275.307C454.768 273.351 454.442 270.906 454.442 267.972V84.108Z" fill="black"/>
<path d="M566.752 4.89V347.19H654.283C668.627 347.19 681.341 345.397 692.425 341.811C703.509 338.225 712.963 333.009 720.787 326.163C728.611 319.317 734.642 310.515 738.88 299.757C743.118 288.999 745.237 276.285 745.237 261.615V90.465C745.237 75.795 743.118 63.081 738.88 52.323C734.642 41.565 728.611 32.763 720.787 25.917C712.963 18.745 703.509 13.529 692.425 10.269C681.341 6.683 668.627 4.89 654.283 4.89H566.752ZM644.992 72.861H654.283C656.239 72.861 658.032 73.187 659.662 73.839C661.292 74.165 662.596 74.98 663.574 76.284C664.878 77.262 665.693 78.892 666.019 81.174C666.671 83.13 666.997 85.738 666.997 88.998V263.082C666.997 266.342 666.671 269.113 666.019 271.395C665.693 273.351 664.878 274.981 663.574 276.285C662.596 277.263 661.292 278.078 659.662 278.73C658.032 279.056 656.239 279.219 654.283 279.219H644.992V72.861Z" fill="black"/>
<path d="M755.846 4.89V261.615C755.846 276.611 757.802 289.814 761.714 301.224C765.626 312.308 771.331 321.762 778.829 329.586C786.327 337.084 795.455 342.789 806.213 346.701C817.297 350.287 829.848 352.08 843.866 352.08C857.884 352.08 870.435 350.124 881.519 346.212C892.929 342.3 902.383 336.595 909.881 329.097C917.705 321.599 923.573 312.308 927.485 301.224C931.723 289.814 933.842 276.611 933.842 261.615V4.89H855.602V267.972C855.602 270.906 855.276 273.351 854.624 275.307C854.298 277.263 853.646 278.893 852.668 280.197C851.69 281.501 850.549 282.479 849.245 283.131C847.941 283.783 846.474 284.109 844.844 284.109C843.54 284.109 842.073 283.783 840.443 283.131C839.139 282.479 837.998 281.501 837.02 280.197C836.368 278.893 835.716 277.263 835.064 275.307C834.412 273.351 834.086 270.906 834.086 267.972V4.89H755.846Z" fill="black"/>
<path d="M1022.71 84.108C1022.71 80.848 1023.04 78.24 1023.69 76.284C1024.34 74.328 1025.16 72.698 1026.14 71.394C1027.11 70.09 1028.26 69.275 1029.56 68.949C1031.19 68.297 1032.66 67.971 1033.96 67.971C1035.92 67.971 1037.55 68.297 1038.85 68.949C1040.15 69.275 1041.3 70.09 1042.27 71.394C1043.25 72.698 1044.07 74.328 1044.72 76.284C1045.37 78.24 1045.7 80.848 1045.7 84.108V166.749H1123.94V89.976C1123.94 75.306 1121.82 62.429 1117.58 51.345C1113.34 39.935 1107.31 30.481 1099.49 22.983C1091.66 15.485 1082.05 9.78 1070.64 5.86801C1059.55 1.956 1047 0 1032.98 0C1018.96 0 1006.41 1.956 995.33 5.86801C984.572 9.454 975.444 14.996 967.946 22.494C960.448 29.992 954.58 39.446 950.342 50.856C946.43 61.94 944.474 74.98 944.474 89.976V261.615C944.474 276.611 946.43 289.814 950.342 301.224C954.58 312.308 960.448 321.762 967.946 329.586C975.444 337.084 984.572 342.789 995.33 346.701C1006.41 350.287 1018.96 352.08 1032.98 352.08C1047 352.08 1059.55 350.124 1070.64 346.212C1082.05 342.3 1091.66 336.595 1099.49 329.097C1107.31 321.599 1113.34 312.308 1117.58 301.224C1121.82 289.814 1123.94 276.611 1123.94 261.615V185.331H1045.7V267.972C1045.7 270.906 1045.37 273.351 1044.72 275.307C1044.07 277.263 1043.25 278.893 1042.27 280.197C1041.3 281.501 1040.15 282.479 1038.85 283.131C1037.55 283.783 1035.92 284.109 1033.96 284.109C1032.66 284.109 1031.19 283.783 1029.56 283.131C1028.26 282.479 1027.11 281.501 1026.14 280.197C1025.16 278.893 1024.34 277.263 1023.69 275.307C1023.04 273.351 1022.71 270.906 1022.71 267.972V84.108Z" fill="black"/>
<path d="M1303.25 4.89H1131.12V72.861H1178.07V347.19H1256.31V72.861H1303.25V4.89Z" fill="black"/>
<path d="M1490.2 124.206V89.976C1490.2 61.288 1482.37 39.12 1466.73 23.472C1451.08 7.824 1428.75 0 1399.73 0C1371.37 0 1349.53 7.661 1334.21 22.983C1319.21 38.305 1311.71 60.636 1311.71 89.976V94.866C1311.71 108.884 1312.36 120.946 1313.67 131.052C1315.3 141.158 1317.74 150.123 1321 157.947C1324.59 165.445 1329.32 171.965 1335.18 177.507C1341.38 183.049 1348.88 188.265 1357.68 193.155L1374.79 201.468C1383.27 206.032 1389.95 209.944 1394.84 213.204C1400.06 216.138 1403.97 219.072 1406.58 222.006C1409.19 224.614 1410.82 227.385 1411.47 230.319C1412.12 233.253 1412.45 237.002 1412.45 241.566V267.972C1412.45 273.514 1411.47 277.589 1409.51 280.197C1407.56 282.805 1404.62 284.109 1400.71 284.109C1397.12 284.109 1394.35 282.805 1392.4 280.197C1390.44 277.263 1389.46 273.188 1389.46 267.972V227.874H1311.22V261.615C1311.22 290.955 1318.72 313.449 1333.72 329.097C1348.71 344.419 1370.72 352.08 1399.73 352.08C1428.75 352.08 1451.08 344.256 1466.73 328.608C1482.7 312.96 1490.69 290.629 1490.69 261.615V254.769C1490.69 240.751 1489.87 228.689 1488.24 218.583C1486.94 208.477 1484.49 199.838 1480.91 192.666C1477.65 185.168 1473.08 178.811 1467.21 173.595C1461.67 168.053 1454.5 163 1445.7 158.436L1430.54 151.101C1421.09 146.211 1413.59 142.136 1408.05 138.876C1402.83 135.616 1398.75 132.519 1395.82 129.585C1393.21 126.651 1391.58 123.717 1390.93 120.783C1390.28 117.523 1389.95 113.774 1389.95 109.536V84.108C1389.95 78.892 1390.77 74.98 1392.4 72.372C1394.35 69.438 1397.12 67.971 1400.71 67.971C1404.3 67.971 1407.07 69.438 1409.02 72.372C1410.98 74.98 1411.96 78.892 1411.96 84.108V124.206H1490.2Z" fill="black"/>
</svg>
