<svg width="418" height="1489" viewBox="0 0 418 1489" fill="none" xmlns="http://www.w3.org/2000/svg">
<path d="M107.067 1488.5H310.354C328.115 1488.5 343.753 1486.18 357.267 1481.55C370.394 1476.53 381.592 1469.58 390.858 1460.7C399.739 1451.82 406.496 1441.01 411.129 1428.27C415.376 1415.15 417.5 1400.28 417.5 1383.68C417.5 1367.08 415.183 1352.22 410.55 1339.09C405.917 1325.58 399.16 1314.19 390.279 1304.93C381.399 1295.66 370.394 1288.52 357.267 1283.5C343.753 1278.48 328.115 1275.97 310.354 1275.97H107.067C89.6917 1275.97 74.4403 1278.48 61.3125 1283.5C47.7986 1288.52 36.6014 1295.66 27.7208 1304.93C18.8403 1314.19 12.0833 1325.58 7.45001 1339.09C2.81667 1352.22 0.5 1367.08 0.5 1383.68C0.5 1400.28 2.81667 1415.15 7.45001 1428.27C11.6972 1441.01 18.2611 1451.82 27.1417 1460.7C36.0222 1469.58 47.2194 1476.53 60.7333 1481.55C73.8611 1486.18 89.3056 1488.5 107.067 1488.5ZM100.117 1395.84C96.2555 1395.84 93.1667 1395.46 90.85 1394.69C88.5333 1393.91 86.6028 1392.95 85.0583 1391.79C83.5139 1390.63 82.5486 1389.28 82.1625 1387.74C81.3903 1385.81 81.0042 1384.07 81.0042 1382.53C81.0042 1380.21 81.3903 1378.28 82.1625 1376.73C82.5486 1375.19 83.5139 1373.84 85.0583 1372.68C86.6028 1371.52 88.5333 1370.56 90.85 1369.79C93.1667 1369.01 96.2555 1368.63 100.117 1368.63H317.883C321.358 1368.63 324.254 1369.01 326.571 1369.79C328.887 1370.56 330.818 1371.52 332.362 1372.68C333.907 1373.84 335.065 1375.19 335.837 1376.73C336.61 1378.28 336.996 1380.21 336.996 1382.53C336.996 1384.07 336.61 1385.81 335.837 1387.74C335.065 1389.28 333.907 1390.63 332.362 1391.79C330.818 1392.95 328.887 1393.91 326.571 1394.69C324.254 1395.46 321.358 1395.84 317.883 1395.84H100.117Z" fill="black"/>
<path d="M6.29166 1262.84H411.708V1170.19H261.704V1160.92C261.704 1154.74 263.249 1150.69 266.337 1148.76C269.04 1146.44 274.06 1145.29 281.396 1145.29H328.308C344.139 1145.29 359.004 1145.09 372.904 1144.71C386.418 1143.94 399.353 1142.2 411.708 1139.5V1046.84C399.353 1049.16 386.611 1050.7 373.483 1051.47C360.356 1052.24 345.683 1052.63 329.467 1052.63H324.254C308.81 1052.63 295.103 1054.56 283.133 1058.42C271.164 1061.9 260.932 1066.53 252.437 1072.32C243.943 1077.73 237.379 1084.1 232.746 1091.43C227.726 1098.38 225.024 1105.14 224.637 1111.7H218.267C217.881 1105.14 215.564 1098.38 211.317 1091.43C207.069 1084.1 200.699 1077.73 192.204 1072.32C183.71 1066.53 173.285 1061.9 160.929 1058.42C148.574 1054.56 134.094 1052.63 117.492 1052.63H114.596C77.9153 1052.63 50.6944 1061.9 32.9333 1080.43C15.1722 1098.96 6.29166 1125.4 6.29166 1159.76L6.29166 1262.84ZM86.7958 1170.19V1160.92C86.7958 1154.74 88.3403 1150.69 91.4292 1148.76C94.1319 1146.44 99.1514 1145.29 106.488 1145.29H160.929C168.651 1145.29 174.057 1146.44 177.146 1148.76C179.849 1150.69 181.2 1154.74 181.2 1160.92V1170.19H86.7958Z" fill="black"/>
<path d="M6.29166 1038.33H411.708L411.708 945.675H6.29166L6.29166 1038.33Z" fill="black"/>
<path d="M100.117 840.501C96.2555 840.501 93.1667 840.115 90.85 839.343C88.5333 838.571 86.6028 837.605 85.0583 836.447C83.5139 835.289 82.5486 833.938 82.1625 832.394C81.3903 830.463 81.0042 828.726 81.0042 827.182C81.0042 824.865 81.3903 822.935 82.1625 821.391C82.5486 819.847 83.5139 818.495 85.0583 817.337C86.6028 816.179 88.5333 815.214 90.85 814.442C93.1667 813.67 96.2555 813.283 100.117 813.283H171.933L171.933 720.628H107.067C89.6917 720.628 74.4403 723.138 61.3125 728.156C47.7986 733.175 36.6014 740.317 27.7208 749.583C18.8403 758.848 12.0833 770.237 7.45001 783.75C2.81667 796.876 0.5 811.739 0.5 828.34C0.5 844.941 2.81667 859.804 7.45001 872.93C11.6972 885.67 18.2611 896.48 27.1417 905.36C36.0222 914.239 47.2194 921.188 60.7333 926.207C73.8611 930.84 89.3056 933.156 107.067 933.156H310.354C329.66 933.156 346.069 930.84 359.583 926.207C372.711 921.188 383.715 914.818 392.596 907.097C401.09 899.376 407.461 890.689 411.708 881.038C415.569 871 417.5 861.155 417.5 851.504C417.5 837.605 414.025 824.865 407.075 813.283C399.739 801.702 389.121 793.98 375.221 790.12V783.75H411.708V720.628H187.571L187.571 830.077H247.804V813.283H313.25C317.111 813.283 320.586 813.863 323.675 815.021C326.764 815.793 329.274 816.758 331.204 817.916C333.135 819.074 334.679 820.619 335.837 822.549C336.61 824.093 336.996 825.831 336.996 827.761C336.996 829.691 336.61 831.428 335.837 832.973C335.065 834.517 333.907 835.868 332.362 837.026C330.818 837.799 328.887 838.571 326.571 839.343C323.868 840.115 320.972 840.501 317.883 840.501H100.117Z" fill="black"/>
<path d="M6.29166 707.499H411.708V614.844H6.29166L6.29166 707.499Z" fill="black"/>
<path d="M6.29166 475.503L250.7 452.919V458.13L6.29166 501.563L6.29166 601.746H411.708V509.091L169.037 529.938V524.726L411.708 483.611V382.848H6.29166L6.29166 475.503Z" fill="black"/>
<path d="M6.29166 337.466L411.708 373.949V281.294L166.142 269.133V263.342L411.708 251.181V158.525L6.29166 193.271L6.29166 337.466ZM319.621 234.966H239.117V299.825H319.621V234.966Z" fill="black"/>
<path d="M6.29166 149.328H411.708L411.708 0.500007H331.204V56.6724H6.29166L6.29166 149.328Z" fill="black"/>
</svg>
