<?xml version="1.0" encoding="UTF-8" standalone="no"?>
<!DOCTYPE svg PUBLIC "-//W3C//DTD SVG 1.1//EN" "http://www.w3.org/Graphics/SVG/1.1/DTD/svg11.dtd">
<svg width="100%" height="100%" viewBox="0 0 1901 180" version="1.1" xmlns="http://www.w3.org/2000/svg" xmlns:xlink="http://www.w3.org/1999/xlink" xml:space="preserve" xmlns:serif="http://www.serif.com/" style="fill-rule:evenodd;clip-rule:evenodd;stroke-linejoin:round;stroke-miterlimit:2;">
    <g transform="matrix(1,0,0,1,-4669.87,-510.001)">
        <g transform="matrix(1,0,0,1,4330.89,0)">
            <g transform="matrix(1,0,0,1,1934.96,685.544)">
                <path d="M0,-171.088L42.675,-118.851L0,-66.614L-42.675,-118.851L0,-171.088ZM304.542,-57.082C304.542,-16.824 263.922,4.455 187.069,4.455C144.639,4.455 111.399,0.175 82.469,-9.01L80.439,-9.656L94.108,-53.114L96.171,-52.418C123.66,-43.167 153.391,-38.67 187.069,-38.67C223.755,-38.67 242.359,-42.7 242.359,-50.647C242.359,-57.619 229.131,-59.816 189.382,-62.875C120.889,-67.813 81.231,-78.699 81.231,-119.703C81.231,-155.189 124.139,-175.543 198.95,-175.543C223.472,-175.543 268.948,-173.851 297.987,-162.528L299.816,-161.815L286.705,-117.836L284.534,-118.711C262.642,-127.517 233.049,-132.172 198.95,-132.172C185.581,-132.172 144.898,-132.172 144.898,-123.412C144.898,-117.49 156.45,-114.698 192.432,-111.926C269.952,-106.446 304.542,-97.227 304.542,-57.082M-157.764,-100.053L-245.227,-100.053L-245.227,-127.467L-159.002,-127.467C-147.949,-127.467 -141.086,-122.403 -141.086,-114.256C-141.086,-101.899 -151.533,-100.053 -157.764,-100.053M-133.047,-62.879C-101.507,-66.034 -81.128,-87.075 -81.128,-116.481C-81.128,-149.655 -106.349,-171.088 -145.386,-171.088L-306.669,-171.088L-306.669,0L-245.227,0L-245.227,-58.411L-205.253,-58.411L-153.521,0L-71.222,0L-133.359,-62.875L-133.047,-62.879ZM-548.738,-171.088L-336.812,-171.088L-336.812,-127.221L-487.297,-127.221L-487.297,-111.689L-336.812,-111.689L-336.812,-69.551L-487.297,-69.551L-487.297,-43.871L-336.812,-43.871L-336.812,0L-548.738,0L-548.738,-171.088ZM-753.129,-85.05C-753.129,-56.94 -725.707,-40.158 -679.773,-40.158C-666.207,-40.158 -652.217,-41.612 -641.069,-44.167L-641.069,-92.626L-579.623,-92.626L-579.623,-11.248L-581.069,-10.756C-609.046,-1.233 -647.795,4.455 -684.724,4.455C-767.273,4.455 -816.554,-29.189 -816.554,-85.546C-816.554,-151.901 -748.453,-175.543 -684.724,-175.543C-642.553,-175.543 -608.092,-169.083 -579.377,-155.793L-577.723,-155.026L-590.017,-111.868L-592.226,-112.781C-620.207,-124.329 -648.762,-129.942 -679.527,-129.942C-727.678,-129.942 -753.129,-114.418 -753.129,-85.05M-980.704,-70.105L-952.052,-118.007L-923.613,-70.105L-980.704,-70.105ZM-981.891,-172.326L-1097.62,0L-1022.38,0L-1006.28,-26.484L-898.058,-26.484L-882.217,0L-805.727,0L-921.204,-172.326L-981.891,-172.326ZM-1197.58,-100.053L-1285.04,-100.053L-1285.04,-127.467L-1198.82,-127.467C-1187.77,-127.467 -1180.9,-122.403 -1180.9,-114.256C-1180.9,-101.899 -1191.35,-100.053 -1197.58,-100.053M-1172.86,-62.879C-1141.32,-66.034 -1120.94,-87.075 -1120.94,-116.481C-1120.94,-149.655 -1146.17,-171.088 -1185.2,-171.088L-1346.49,-171.088L-1346.49,0L-1285.04,0L-1285.04,-58.411L-1245.07,-58.411L-1193.34,0L-1111.04,0L-1173.18,-62.875L-1172.86,-62.879ZM-1450.79,-88.917L-1534.54,-88.917L-1534.54,-127.467L-1452.27,-127.467C-1437.8,-127.467 -1429.16,-120.586 -1429.16,-109.059C-1429.16,-97.011 -1437.85,-88.917 -1450.79,-88.917M-1436.93,-171.088L-1595.98,-171.088L-1595.98,0L-1534.54,0L-1534.54,-45.292L-1436.68,-45.292C-1394.54,-45.292 -1366.23,-70.918 -1366.23,-109.059C-1366.23,-147.9 -1392.66,-171.088 -1436.93,-171.088" style="fill:white;fill-rule:nonzero;"/>
            </g>
        </g>
    </g>
</svg>
