<?xml version="1.0" standalone="no"?>
<!DOCTYPE svg PUBLIC "-//W3C//DTD SVG 20010904//EN"
 "http://www.w3.org/TR/2001/REC-SVG-20010904/DTD/svg10.dtd">
<svg version="1.0" xmlns="http://www.w3.org/2000/svg"
 width="700.000000pt" height="700.000000pt" viewBox="0 0 700.000000 700.000000"
 preserveAspectRatio="xMidYMid meet">
<metadata>
Created by potrace 1.14, written by Peter Selinger 2001-2017
</metadata>
<g transform="translate(0.000000,700.000000) scale(0.100000,-0.100000)"
fill="#000000" stroke="none">
<path d="M3400 6993 c-1 -5 -3 -89 -6 -188 -2 -99 -6 -187 -8 -197 -2 -9 4
-18 14 -21 28 -7 123 1 129 11 3 6 6 40 6 76 0 36 1 66 3 66 2 0 56 -38 120
-85 115 -84 139 -96 147 -72 2 6 6 98 9 204 l6 191 -61 4 c-33 1 -66 1 -72 -2
-8 -3 -14 -32 -15 -80 -2 -41 -4 -75 -5 -76 -1 -1 -56 38 -122 87 -111 82
-144 101 -145 82z"/>
<path d="M3278 6985 c-2 -2 -32 -5 -68 -9 -98 -10 -172 -18 -189 -21 -9 -2
-26 -4 -39 -4 -17 -1 -22 -6 -18 -18 3 -10 8 -52 11 -93 4 -41 8 -88 10 -104
2 -15 7 -64 11 -108 l7 -80 51 6 c115 15 143 18 186 21 25 2 60 4 78 4 l34 1
-6 43 c-3 23 -5 46 -5 50 -1 8 -150 1 -182 -9 -11 -3 -18 3 -22 17 -10 39 1
46 86 53 117 10 114 9 108 59 l-6 42 -55 0 c-30 -1 -74 -4 -98 -7 -34 -5 -45
-3 -49 9 -8 21 9 29 65 32 26 2 58 4 72 6 14 2 33 4 42 4 12 1 16 8 14 29 -2
15 -4 39 -5 53 -1 21 -20 35 -33 24z"/>
<path d="M3887 6963 c-3 -5 -7 -29 -11 -55 l-7 -46 48 -10 c26 -6 51 -8 55 -6
18 11 18 -28 -1 -142 -11 -65 -21 -125 -23 -133 -2 -10 17 -18 66 -27 39 -8
71 -12 72 -11 4 4 13 53 31 170 19 120 17 118 105 98 l37 -9 10 50 c6 27 11
53 11 57 0 5 -21 12 -47 15 -27 4 -55 9 -63 11 -8 1 -34 6 -58 10 -24 3 -80
13 -125 21 -95 16 -95 16 -100 7z"/>
<path d="M2835 6932 c-9 -6 -153 -175 -166 -195 -3 -5 -64 14 -135 42 -71 28
-132 51 -136 51 -5 0 -8 -8 -8 -17 0 -24 90 -376 99 -385 6 -7 115 22 127 35
4 3 1 28 -6 54 -7 26 -14 60 -17 76 l-4 27 55 -24 55 -25 44 51 43 50 14 -58
c25 -110 19 -104 96 -88 37 8 69 16 70 17 2 1 -6 34 -17 72 -11 39 -21 79 -24
90 -2 11 -11 47 -20 80 -21 74 -20 72 -30 118 -7 36 -19 45 -40 29z"/>
<path d="M4339 6867 c-22 -52 -111 -358 -105 -364 2 -2 57 -19 122 -38 65 -19
136 -41 158 -50 21 -9 40 -14 43 -12 2 3 10 25 18 50 l13 45 -94 28 c-95 28
-107 38 -85 73 8 12 24 10 101 -13 51 -15 93 -26 94 -24 1 2 7 16 14 31 23 54
18 61 -71 85 -97 27 -106 32 -98 53 5 14 17 12 99 -13 52 -17 95 -28 98 -26 8
9 32 98 26 98 -4 0 -78 23 -165 49 -158 49 -158 49 -168 28z"/>
<path d="M4745 6717 c-10 -23 -45 -97 -77 -164 -83 -176 -83 -164 4 -198 40
-16 99 -41 131 -56 71 -33 131 -31 196 9 90 55 124 185 69 266 -28 40 -76 80
-123 101 -16 7 -64 29 -106 48 l-76 35 -18 -41z m177 -155 c46 -38 24 -132
-36 -157 -32 -13 -40 -13 -76 1 -22 9 -40 17 -40 19 0 1 18 41 40 88 l40 87
27 -12 c16 -7 36 -18 45 -26z"/>
<path d="M2190 6732 c-8 -2 -39 -15 -68 -28 -29 -13 -80 -36 -115 -50 -34 -14
-66 -29 -70 -33 -7 -7 134 -346 152 -364 5 -5 36 5 69 22 l61 31 -25 55 c-13
31 -24 60 -24 65 0 21 34 8 90 -35 l58 -44 80 32 81 33 -79 51 -80 51 19 23
c42 55 30 139 -24 175 -26 17 -95 26 -125 16z m30 -127 c16 -19 7 -31 -40 -55
-50 -26 -54 -25 -68 5 -11 24 -10 27 31 45 52 23 61 24 77 5z"/>
<path d="M1700 6487 c-80 -48 -144 -92 -143 -96 2 -8 152 -261 189 -318 14
-22 14 -22 106 36 51 32 117 71 146 87 28 15 52 31 52 35 0 12 -41 79 -48 79
-4 0 -44 -22 -89 -49 l-82 -49 -16 25 c-9 13 -15 26 -13 27 2 2 39 24 83 51
44 27 82 50 84 51 5 4 -42 84 -49 84 -4 0 -44 -23 -90 -50 -72 -43 -85 -48
-93 -34 -5 8 -7 17 -5 18 1 1 39 24 83 51 44 27 81 50 83 51 2 1 -9 22 -25 46
l-28 44 -145 -89z"/>
<path d="M5404 6380 c-32 -13 -54 -50 -54 -91 0 -36 -1 -37 -36 -34 -93 9
-156 -79 -119 -165 9 -22 141 -110 165 -110 11 0 20 -6 20 -14 0 -16 90 -97
101 -90 4 2 3 23 -2 46 -13 54 -7 66 36 74 44 8 47 12 34 58 -11 39 -18 41
-72 20 -10 -3 -16 4 -21 27 -11 56 -9 59 34 59 47 0 97 39 104 81 15 89 -103
174 -190 139z m90 -103 c12 -19 1 -34 -29 -39 -15 -2 -21 3 -23 21 -6 39 31
52 52 18z m-134 -119 c1 -7 3 -30 6 -50 6 -41 0 -45 -41 -26 -30 13 -43 52
-25 73 15 18 60 20 60 3z"/>
<path d="M1382 6271 c-129 -100 -162 -128 -162 -136 0 -6 54 -76 85 -111 6 -7
43 -55 84 -107 73 -95 74 -96 95 -79 51 40 86 71 86 77 0 3 -18 28 -40 56 -22
28 -40 54 -40 59 0 4 33 33 74 65 l75 59 -31 38 c-34 43 -28 44 -119 -28 -62
-50 -68 -52 -82 -36 -15 16 -10 22 59 76 41 32 74 63 74 70 0 6 -13 26 -28 44
l-27 33 -103 -80z"/>
<path d="M5934 5977 c-10 -11 -112 -104 -241 -221 l-44 -39 48 -49 c26 -26 50
-48 53 -48 4 0 30 22 60 48 l54 49 43 -46 43 -46 -56 -52 -57 -53 29 -36 c16
-20 37 -46 46 -58 l17 -21 32 30 c18 17 42 39 53 51 17 17 200 179 216 191 2
2 0 7 -5 11 -6 4 -29 28 -51 53 l-42 46 -48 -44 c-27 -23 -51 -43 -54 -42 -3
0 -23 21 -44 46 l-40 44 47 40 c26 23 47 46 47 53 0 6 -21 33 -47 58 -36 35
-51 44 -59 35z"/>
<path d="M1079 5907 c-2 -27 3 -88 10 -113 7 -28 10 -29 94 -37 l47 -5 -1 46
c-1 26 -4 60 -8 76 -6 28 -10 30 -56 33 -28 1 -58 5 -67 7 -10 2 -18 -1 -19
-7z"/>
<path d="M4697 5883 c-1 -1 -59 -4 -129 -8 -70 -3 -135 -7 -145 -9 -10 -2 -63
-7 -118 -10 -55 -4 -111 -9 -125 -11 -14 -2 -50 -7 -80 -10 -30 -3 -107 -12
-170 -20 -63 -9 -133 -18 -155 -20 -40 -5 -107 -15 -135 -20 -8 -1 -35 -6 -60
-9 -25 -4 -67 -11 -95 -17 -164 -31 -323 -61 -341 -65 -161 -31 -524 -132
-702 -195 -252 -89 -499 -202 -677 -312 -323 -198 -523 -446 -590 -729 -21
-91 -14 -265 14 -342 42 -118 116 -202 218 -249 68 -31 214 -30 294 1 155 61
306 204 436 413 62 98 189 357 181 364 -7 6 -221 95 -223 93 -1 -2 -31 -64
-68 -138 -181 -372 -401 -574 -538 -493 -46 27 -79 104 -81 188 -4 203 129
422 364 597 365 272 1039 507 1818 633 52 8 104 17 115 19 17 3 114 16 150 21
6 0 39 5 75 9 36 5 76 10 90 11 14 1 48 5 75 9 68 8 127 14 210 21 39 3 88 8
110 10 35 4 126 10 298 20 29 2 75 4 104 4 l52 1 -3 118 c-2 64 -4 121 -5 125
-1 6 -158 7 -164 0z"/>
<path d="M814 5676 c-50 -23 -94 -68 -184 -189 -23 -32 -41 -59 -39 -61 103
-82 312 -236 319 -234 14 5 152 200 167 235 28 68 10 155 -44 204 -74 69 -139
82 -219 45z m95 -135 c53 -29 66 -97 28 -148 l-23 -31 -59 45 c-33 25 -68 51
-79 58 -18 13 -18 14 3 42 37 47 82 59 130 34z"/>
<path d="M6153 5447 c-117 -22 -213 -44 -213 -47 0 -4 19 -33 41 -64 39 -54
44 -57 73 -52 30 6 34 3 69 -50 l37 -56 -19 -25 c-20 -24 -20 -24 16 -84 20
-33 39 -62 44 -65 5 -2 63 77 129 176 l121 181 -36 59 c-20 33 -39 61 -43 63
-4 2 -103 -14 -219 -36z m128 -114 c-21 -36 -51 -64 -61 -58 -5 3 -14 15 -20
25 -9 17 -4 21 37 33 27 8 49 15 51 16 1 1 -2 -7 -7 -16z"/>
<path d="M451 5193 c-44 -80 -80 -147 -78 -148 13 -12 349 -196 351 -194 2 2
18 33 36 69 18 36 55 102 82 148 28 46 48 85 47 86 -2 2 -22 13 -43 25 -46 24
-39 29 -100 -81 -21 -38 -39 -68 -41 -68 -2 0 -15 5 -29 11 l-25 12 31 56 c17
31 39 70 49 87 21 35 19 39 -37 67 l-31 16 -49 -89 c-42 -76 -51 -87 -67 -79
-17 10 -17 11 1 42 11 18 33 57 51 88 l31 57 -35 21 c-20 12 -42 21 -49 21 -7
0 -50 -66 -95 -147z"/>
<path d="M3344 5163 c-136 -155 -361 -467 -417 -579 -14 -27 -37 -40 -163 -94
-216 -90 -404 -181 -403 -194 0 -6 23 -57 52 -113 l52 -102 105 51 c58 28 114
54 126 58 18 7 9 -19 -56 -158 -42 -92 -114 -255 -159 -362 -187 -442 -221
-520 -270 -623 -130 -272 -238 -400 -323 -382 -139 29 -183 295 -90 545 32 87
91 198 156 295 37 53 68 101 69 105 3 13 -184 142 -197 137 -17 -7 -135 -185
-184 -278 -57 -108 -107 -253 -131 -379 -13 -74 -6 -283 13 -345 52 -174 157
-286 302 -320 172 -41 334 49 469 259 98 154 160 284 358 756 64 151 127 302
142 335 15 33 36 80 47 105 56 127 221 447 237 461 50 42 429 156 823 248 43
10 44 15 -22 -94 -52 -86 -149 -280 -210 -420 -100 -231 -181 -467 -290 -845
-88 -304 -74 -278 -166 -329 -416 -230 -749 -560 -904 -896 -18 -38 -37 -78
-41 -87 -5 -10 -23 -66 -40 -125 -27 -92 -32 -129 -35 -243 -6 -209 35 -341
138 -443 77 -77 133 -101 238 -101 73 -1 93 3 141 26 242 117 443 541 745
1568 20 69 39 136 42 149 3 17 22 31 71 53 127 58 471 182 471 170 0 -3 -15
-57 -34 -121 -136 -458 -188 -788 -163 -1035 11 -101 25 -152 68 -243 128
-270 408 -324 666 -129 188 142 339 419 412 758 l19 87 -52 10 c-28 6 -64 12
-81 15 -16 2 -49 7 -72 11 -24 4 -43 4 -44 -1 -11 -134 -108 -400 -193 -526
-88 -132 -221 -230 -301 -222 -92 9 -152 99 -174 263 -8 65 -6 215 4 280 14
92 25 158 30 181 3 14 8 41 11 60 20 115 112 441 185 662 22 64 25 68 73 90
389 179 640 344 870 573 320 320 485 733 415 1040 -28 122 -106 233 -199 280
-188 95 -377 9 -597 -272 -48 -60 -175 -251 -214 -319 -131 -233 -201 -371
-295 -582 -36 -81 -72 -160 -79 -177 -8 -16 -44 -108 -82 -204 l-68 -174 -145
-49 c-80 -28 -201 -70 -269 -94 -68 -25 -126 -42 -128 -40 -5 5 73 269 140
476 139 423 366 877 527 1050 l42 45 -35 110 -34 110 -64 -3 c-149 -7 -549
-93 -796 -171 -51 -16 -93 -27 -93 -24 0 11 125 176 204 268 l85 100 -27 25
c-15 14 -57 51 -93 82 l-65 57 -50 -56z m2040 -392 c36 -30 59 -101 61 -186 6
-294 -210 -639 -573 -913 -86 -64 -247 -172 -259 -172 -3 0 -32 -16 -64 -36
-33 -19 -63 -34 -68 -32 -17 6 193 470 318 703 141 261 259 434 381 557 106
107 151 124 204 79z m-2224 -2298 c-186 -639 -398 -1120 -533 -1204 -100 -62
-191 55 -190 246 0 132 53 320 122 436 11 19 27 48 36 64 60 118 274 347 435
468 150 112 155 115 158 107 2 -5 -11 -57 -28 -117z"/>
<path d="M6500 5124 c-226 -106 -290 -138 -290 -144 0 -10 61 -120 66 -120 3
0 32 14 65 31 34 17 63 28 66 25 4 -4 -8 -101 -22 -166 -12 -58 -15 -116 -6
-129 9 -14 8 -14 286 114 44 20 81 38 83 40 1 1 -11 32 -27 68 l-30 66 -68
-33 c-37 -19 -71 -32 -74 -30 -3 2 0 34 7 71 29 160 39 243 28 242 -5 0 -43
-16 -84 -35z"/>
<path d="M331 4967 c-28 -72 -134 -333 -138 -340 -4 -7 72 -46 93 -47 7 0 22
25 34 55 25 62 21 62 119 19 29 -13 57 -24 62 -24 5 0 31 -11 58 -24 l49 -23
21 49 c39 89 41 85 -99 141 -69 28 -127 52 -129 53 -2 2 7 28 19 59 12 31 21
57 19 59 -2 2 -26 13 -52 24 l-48 21 -8 -22z"/>
<path d="M6720 4665 c-186 -54 -311 -93 -316 -98 -3 -3 8 -45 24 -94 17 -48
36 -108 42 -133 23 -88 118 -149 212 -136 117 16 181 96 172 214 -5 67 -64
262 -78 261 -6 0 -31 -7 -56 -14z m14 -177 c8 -31 7 -81 -2 -94 -17 -24 -59
-44 -95 -44 -41 0 -86 36 -88 71 -1 11 -2 24 -3 30 -1 11 129 57 165 58 9 1
19 -9 23 -21z"/>
<path d="M175 4560 c-2 -3 -18 -60 -35 -125 -18 -66 -37 -137 -42 -158 -6 -21
-9 -40 -7 -42 7 -6 382 -106 385 -102 2 1 9 31 17 67 18 74 18 74 -60 90 -29
6 -55 15 -58 20 -6 10 18 118 35 157 11 26 0 37 -52 51 l-38 10 -10 -41 c-34
-131 -40 -147 -60 -147 -11 0 -20 7 -20 15 0 16 38 164 45 175 2 3 -19 13 -46
22 -27 8 -52 12 -54 8z"/>
<path d="M6665 4151 c-78 -35 -122 -114 -111 -199 3 -26 9 -76 12 -112 4 -36
8 -66 9 -68 4 -5 82 10 95 18 10 6 10 15 1 40 -26 75 -4 162 45 180 88 34 142
-23 147 -157 l2 -37 50 3 c27 1 53 5 56 7 18 11 -9 181 -37 236 -49 95 -169
135 -269 89z"/>
<path d="M300 4075 c-80 -23 -170 -50 -201 -59 -31 -8 -56 -21 -57 -28 0 -7
-3 -40 -7 -74 l-6 -61 163 -93 c90 -51 171 -98 180 -105 15 -10 10 -17 -44
-54 l-62 -43 -30 36 c-61 70 -155 63 -201 -15 -17 -29 -20 -52 -20 -169 0 -74
2 -145 4 -158 l4 -23 191 2 c105 2 196 6 201 10 6 4 8 34 5 71 l-5 63 -68 3
c-58 2 -68 6 -65 20 2 9 12 21 23 27 18 9 94 54 104 61 2 2 5 53 7 114 2 61 6
129 8 151 4 35 2 41 -24 54 -23 12 -28 20 -25 42 3 16 6 42 9 60 6 43 13 53
40 53 20 0 24 8 34 64 15 80 15 96 0 95 -7 0 -78 -20 -158 -44z m-20 -175 c0
-35 -4 -36 -61 -11 l-43 20 29 6 c17 4 35 8 40 10 27 9 35 3 35 -25z m-116
-416 c10 -10 16 -33 16 -62 0 -45 -1 -47 -30 -47 -25 -1 -30 3 -31 25 -2 50 3
85 15 92 14 10 12 10 30 -8z"/>
<path d="M6731 3742 l-152 -3 3 -72 3 -72 55 -1 c78 -2 80 -2 80 -18 0 -8 -29
-31 -65 -51 -36 -20 -65 -39 -66 -43 -1 -4 -2 -38 -4 -77 -2 -38 -5 -104 -9
-145 -5 -75 -5 -75 24 -92 18 -10 28 -22 24 -31 -5 -14 -11 -55 -13 -94 -1
-15 -7 -23 -18 -23 -33 0 -44 -17 -59 -90 -8 -39 -14 -73 -12 -75 4 -4 417
111 424 118 3 3 9 37 19 104 5 37 3 43 -17 54 -38 19 -312 181 -326 192 -10 8
1 20 47 49 69 44 77 45 86 17 9 -28 63 -59 102 -59 47 0 81 19 105 59 20 32
22 49 23 189 1 84 -3 156 -8 159 -12 7 -69 8 -246 5z m149 -171 c8 -37 0 -89
-16 -95 -24 -9 -44 23 -44 73 0 46 1 48 27 47 20 -1 29 -7 33 -25z m-87 -493
c21 -11 21 -11 2 -19 -11 -4 -34 -8 -52 -8 -25 -1 -31 3 -28 17 2 9 4 23 4 29
1 13 28 6 74 -19z"/>
<path d="M380 3197 c-25 -5 -48 -12 -52 -16 -4 -3 -2 -27 5 -51 7 -25 12 -51
11 -57 -1 -7 -2 -23 -3 -35 -2 -38 -45 -79 -88 -84 -64 -8 -100 37 -111 137
-4 33 -10 59 -14 59 -5 0 -28 0 -53 0 l-45 0 0 -59 c0 -166 94 -291 220 -291
87 0 177 69 198 150 6 24 9 46 7 49 -3 6 -10 53 -21 151 -3 30 -7 55 -8 56 0
0 -21 -4 -46 -9z"/>
<path d="M6515 2829 c-20 -53 -31 -121 -21 -125 6 -2 38 -12 72 -22 l61 -17
-27 -95 -27 -95 41 -12 c23 -7 46 -11 52 -9 6 3 21 45 33 94 21 83 24 89 46
84 l23 -4 -24 -86 c-13 -48 -24 -92 -24 -98 0 -10 88 -40 95 -32 4 4 93 322
91 325 -2 2 -292 83 -316 88 -8 2 -27 6 -42 10 -19 5 -29 3 -33 -6z"/>
<path d="M315 2770 c-96 -21 -153 -80 -161 -171 -5 -43 2 -80 31 -179 19 -68
37 -125 39 -127 2 -3 377 107 384 112 8 7 -84 264 -105 293 -40 53 -123 86
-188 72z m105 -160 c20 -10 28 -25 44 -76 6 -18 -2 -23 -76 -44 -46 -13 -88
-25 -95 -27 -13 -5 -28 50 -24 87 7 62 87 94 151 60z"/>
<path d="M6672 2340 l-27 -59 -130 54 c-71 30 -133 51 -136 47 -10 -11 -52
-122 -48 -126 2 -1 61 -27 132 -56 70 -29 127 -54 127 -56 0 -2 -11 -28 -24
-58 l-24 -54 50 -22 c27 -12 52 -19 55 -16 16 16 149 352 142 360 -4 5 -26 17
-49 27 l-41 19 -27 -60z"/>
<path d="M610 2362 c-8 -3 -80 -37 -160 -75 -80 -38 -155 -73 -167 -78 -19 -7
-21 -12 -13 -33 14 -39 50 -106 55 -106 3 0 32 14 65 30 68 35 83 37 76 13 -3
-10 -8 -37 -11 -61 -3 -24 -13 -80 -21 -125 -19 -109 -19 -110 9 -103 13 3
100 42 194 87 l170 81 -34 64 -34 63 -64 -31 c-35 -18 -67 -29 -70 -26 -3 3 1
50 10 104 26 159 27 172 18 187 -4 8 -15 12 -23 9z"/>
<path d="M6227 2057 c-20 -40 -59 -109 -85 -153 l-49 -82 45 -21 c24 -12 45
-21 47 -19 1 2 18 32 38 68 55 101 59 105 85 89 12 -8 22 -17 22 -20 0 -4 -20
-42 -45 -85 -25 -44 -45 -82 -45 -85 0 -7 80 -52 84 -48 1 2 20 36 41 74 48
88 53 95 71 88 20 -8 19 -14 -31 -97 -25 -42 -45 -80 -45 -84 0 -6 73 -52 83
-52 7 0 167 285 167 296 0 5 -26 24 -57 40 -32 17 -101 56 -153 86 -52 30
-104 60 -115 66 -19 9 -24 4 -58 -61z"/>
<path d="M699 1820 c-57 -87 -110 -170 -118 -183 -13 -22 -11 -28 24 -85 21
-34 43 -62 49 -62 6 0 38 7 71 14 33 8 74 17 90 20 17 2 68 12 115 21 47 9
100 19 118 22 17 3 32 8 32 10 0 3 -19 32 -42 65 -40 54 -45 58 -75 54 -29 -4
-35 0 -69 47 -36 50 -37 52 -20 80 16 28 15 30 -19 88 -20 32 -40 61 -45 64
-4 3 -55 -67 -111 -155z m111 -135 c7 -14 11 -26 9 -28 -9 -7 -83 -26 -87 -22
-5 4 50 75 59 75 3 0 12 -11 19 -25z"/>
<path d="M6010 1707 c-36 -50 -75 -105 -87 -122 -62 -86 -23 -224 80 -276 102
-53 200 -19 287 100 14 19 30 39 35 45 23 25 65 85 65 93 0 9 -9 17 -190 155
l-125 95 -65 -90z m209 -203 c10 -8 -51 -72 -74 -78 -53 -13 -125 45 -125 101
0 10 11 35 25 56 l26 37 72 -57 c40 -31 74 -58 76 -59z"/>
<path d="M985 1478 c-55 -51 -121 -113 -147 -138 l-47 -45 47 -52 48 -51 49
44 50 44 45 -45 45 -46 -47 -42 c-27 -24 -48 -47 -48 -53 0 -5 21 -31 48 -56
l47 -46 90 85 c50 47 116 108 148 136 l58 51 -53 53 c-49 50 -53 52 -68 35
-36 -37 -90 -82 -99 -82 -5 0 -25 20 -44 44 l-36 44 54 53 54 54 -42 52 c-23
29 -44 52 -47 52 -3 1 -50 -41 -105 -91z"/>
<path d="M5765 1166 c7 -76 13 -85 60 -87 17 0 44 -2 60 -3 33 -1 33 -2 22 87
-8 60 -9 62 -49 65 -18 2 -48 4 -66 6 l-34 2 7 -70z"/>
<path d="M5461 1118 c-28 -23 -51 -45 -51 -48 0 -4 18 -30 40 -58 22 -27 40
-54 40 -58 -1 -5 -28 -29 -61 -54 -33 -25 -67 -50 -76 -57 -14 -11 -12 -16 16
-52 l32 -40 76 59 c59 47 79 58 89 49 8 -6 14 -15 14 -19 0 -6 -69 -64 -139
-116 -12 -9 -9 -17 19 -52 l33 -41 46 37 c25 21 71 56 101 79 30 23 70 55 88
70 l33 28 -38 50 c-92 121 -205 265 -207 265 -2 0 -26 -19 -55 -42z"/>
<path d="M1499 1145 c-2 -12 -2 -10 4 -66 l5 -47 -44 -12 c-24 -7 -44 -15 -44
-18 0 -2 5 -22 12 -44 9 -29 15 -37 27 -32 36 15 61 16 62 3 1 -8 3 -26 5 -41
3 -26 -8 -34 -39 -29 -22 3 -77 -31 -90 -56 -45 -89 67 -205 166 -171 38 14
67 54 67 94 0 34 0 34 49 34 37 0 54 5 75 25 30 28 46 64 41 91 -2 11 -4 27
-4 36 -1 20 -136 120 -165 122 -10 1 -26 13 -35 28 -9 15 -29 37 -46 50 -16
12 -33 27 -37 33 -5 6 -8 6 -9 0z m159 -215 c39 -24 45 -66 10 -79 -13 -5 -29
-5 -37 -1 -15 8 -28 100 -14 100 4 0 23 -9 41 -20z m-120 -177 c-3 -29 -32
-43 -50 -25 -18 18 1 52 28 52 22 0 25 -4 22 -27z"/>
<path d="M5131 880 c-46 -28 -109 -65 -140 -82 -31 -17 -59 -33 -63 -37 -4 -3
4 -25 18 -48 l25 -42 47 28 c26 15 63 38 82 49 44 27 44 27 63 -2 15 -23 15
-24 -66 -71 -45 -27 -84 -50 -87 -52 -2 -2 6 -24 19 -48 l23 -43 81 49 c87 52
102 57 110 36 5 -13 -91 -78 -145 -99 -23 -9 -23 -18 3 -68 l21 -41 37 21
c212 123 261 156 256 170 -10 24 -190 329 -195 330 -3 0 -43 -23 -89 -50z"/>
<path d="M2016 726 c-110 -41 -164 -168 -117 -272 23 -51 62 -81 177 -137 144
-71 125 -78 195 70 74 155 110 235 107 238 -2 1 -30 12 -63 25 -33 13 -86 36
-119 52 -70 35 -128 43 -180 24z m149 -120 c39 -17 42 -26 21 -64 -8 -15 -25
-49 -37 -75 -13 -27 -26 -50 -29 -52 -12 -8 -84 52 -90 76 -10 35 14 91 48
112 33 20 44 21 87 3z"/>
<path d="M4818 709 c-32 -16 -58 -33 -58 -37 1 -4 11 -29 24 -57 38 -81 14
-88 -69 -20 l-55 45 -53 -21 c-28 -12 -64 -26 -80 -31 l-27 -10 72 -51 c40
-27 75 -51 77 -53 2 -2 -6 -15 -18 -30 -26 -33 -28 -94 -4 -135 23 -38 76 -63
122 -56 46 6 291 109 291 122 -1 18 -148 360 -157 362 -4 1 -34 -11 -65 -28z
m43 -275 c5 -15 8 -28 7 -29 -15 -12 -99 -36 -107 -30 -26 15 -11 46 32 65 54
25 56 25 68 -6z"/>
<path d="M2411 592 c-5 -9 -12 -31 -15 -48 l-7 -32 71 -21 c123 -38 121 -36
109 -69 l-10 -29 -69 23 c-127 41 -126 41 -138 -8 -6 -24 -8 -46 -4 -49 4 -4
47 -19 95 -34 69 -20 87 -29 83 -41 -3 -9 -6 -17 -6 -18 0 -2 -43 10 -97 25
-53 16 -97 28 -98 27 -6 -8 -25 -73 -25 -84 0 -7 42 -25 98 -43 187 -58 226
-70 228 -68 1 1 23 70 49 152 25 83 52 167 60 188 16 44 20 41 -95 73 -36 10
-100 30 -143 45 -70 25 -78 26 -86 11z"/>
<path d="M4423 556 c-34 -12 -64 -24 -67 -27 -3 -3 3 -37 13 -75 11 -38 18
-70 17 -72 -2 -1 -23 4 -47 13 -24 9 -51 18 -59 21 -9 2 -28 -13 -49 -41 -18
-25 -37 -45 -41 -45 -4 0 -11 17 -15 38 -3 20 -11 54 -17 75 -11 37 -13 38
-47 32 -20 -4 -49 -9 -66 -12 -16 -3 -32 -7 -34 -9 -8 -7 95 -398 106 -401 6
-2 51 43 100 101 48 58 92 106 98 106 6 0 64 -22 130 -49 119 -50 150 -54 140
-20 -3 10 -17 64 -31 121 -14 57 -27 110 -29 118 -2 8 -11 44 -20 80 -9 35
-17 65 -18 65 -1 1 -30 -8 -64 -19z"/>
<path d="M2879 453 c0 -10 -2 -25 -4 -33 -4 -19 -12 -64 -20 -115 -20 -121
-12 -113 -102 -100 -45 7 -45 7 -58 -67 -3 -22 -2 -38 4 -38 13 0 288 -49 336
-60 21 -5 41 -7 43 -5 8 8 22 97 17 105 -3 5 -30 12 -61 16 -55 6 -55 7 -51
38 9 58 38 221 43 237 3 13 -8 19 -52 28 -78 15 -94 14 -95 -6z"/>
<path d="M3890 439 c-25 -4 -92 -10 -150 -14 -58 -4 -108 -10 -111 -14 -3 -3
-4 -26 -1 -50 l4 -43 91 7 c51 3 96 7 101 8 5 1 11 -13 13 -30 4 -30 2 -33
-24 -34 -15 0 -39 -2 -53 -4 -14 -2 -47 -4 -73 -6 l-48 -3 5 -40 c3 -23 5 -47
5 -54 1 -7 5 -11 9 -8 4 2 46 8 92 11 47 4 88 9 93 12 4 2 7 -7 7 -20 0 -21
-5 -24 -42 -26 -24 -1 -54 -4 -68 -6 -14 -2 -39 -4 -56 -4 -31 -1 -31 -1 -27
-47 4 -58 8 -63 36 -59 29 5 116 14 197 20 116 10 123 13 115 58 -5 31 -8 58
-21 201 -3 38 -8 76 -9 85 -2 9 -4 28 -4 43 -1 29 -1 29 -81 17z"/>
<path d="M3169 428 c-2 -7 -11 -232 -13 -313 l-1 -90 70 -3 71 -3 2 78 c2 42
4 79 6 80 1 2 56 -37 122 -87 65 -49 125 -90 132 -90 7 0 13 14 13 33 1 17 3
59 4 92 2 33 4 112 6 175 l4 114 -63 1 c-35 0 -67 -2 -72 -5 -5 -3 -10 -38
-12 -78 l-3 -73 -55 40 c-30 22 -60 44 -66 49 -64 54 -139 96 -145 80z"/>
</g>
</svg>
