<?xml version="1.0" encoding="UTF-8" standalone="no"?>
<!DOCTYPE svg PUBLIC "-//W3C//DTD SVG 1.1//EN" "http://www.w3.org/Graphics/SVG/1.1/DTD/svg11.dtd">
<svg width="100%" height="100%" viewBox="0 0 56 28" version="1.1" xmlns="http://www.w3.org/2000/svg" xmlns:xlink="http://www.w3.org/1999/xlink" xml:space="preserve" xmlns:serif="http://www.serif.com/" style="fill-rule:evenodd;clip-rule:evenodd;stroke-linejoin:round;stroke-miterlimit:2;">
    <path d="M56,26L56,28L48.25,28C50.55,26.73 53.19,26 56,26ZM30,28C30,26.903 29.097,26 28,26C26.903,26 26,26.903 26,28L21.91,28C17.14,20.529 8.864,15.996 0,16L0,14C0.67,14 1.34,14.02 2,14.07L2,14C2,12.903 1.097,12 0,12L0,10C2.044,10 3.776,11.566 3.98,13.6C4.802,12.236 5.739,10.945 6.78,9.74C5.316,7.412 2.75,5.997 -0,6L0,4C3.246,3.997 6.298,5.578 8.17,8.23C9.11,7.28 10.13,6.4 11.2,5.6C8.56,2.075 4.404,-0.003 -0,0L7.75,0C9.75,1.1 11.48,2.63 12.85,4.45C13.97,3.73 15.15,3.08 16.38,2.52C15.75,1.624 15.047,0.781 14.28,-0L16.98,0C17.43,0.56 17.86,1.14 18.27,1.74C19.57,1.26 20.9,0.87 22.27,0.59C22.16,0.39 22.04,0.19 21.91,0L26,0L26,0.07C27.332,-0.024 28.668,-0.024 30,0.07L30,0L34.09,0L33.72,0.59C35.1,0.87 36.44,1.26 37.73,1.74C38.13,1.14 38.57,0.56 39.03,-0L41.72,-0C40.953,0.781 40.25,1.624 39.62,2.52C40.85,3.08 42.03,3.72 43.16,4.45C44.522,2.623 46.257,1.106 48.25,0L56,0C51.42,0 47.35,2.2 44.8,5.6C45.87,6.4 46.89,7.28 47.83,8.23C49.702,5.578 52.754,3.997 56,4L56,6C53.254,6 50.693,7.415 49.23,9.74C50.26,10.94 51.2,12.24 52.02,13.6C52.224,11.566 53.956,10 56,10L56,12C56,12 55.999,12 55.999,12C54.902,12 53.999,12.903 53.999,14C53.999,14.023 53.999,14.047 54,14.07C54.666,14.023 55.333,14 56,14L56,16C46.8,16 38.7,20.78 34.09,28L30,28ZM7.75,28L0,28L0,26C2.81,26 5.46,26.73 7.75,28ZM56,20L56,22C50.4,22 45.35,24.3 41.72,28L39.02,28C43.06,23.11 49.17,20 56,20ZM16.97,28L14.28,28C10.65,24.3 5.6,22 0,22L0,20C6.83,20 12.94,23.11 16.97,28ZM31.98,27.6C32.802,26.236 33.739,24.945 34.78,23.74C33.318,21.412 30.754,19.994 28.005,19.994C25.256,19.994 22.692,21.412 21.23,23.74C22.26,24.94 23.2,26.24 24.02,27.6C24.224,25.566 25.956,23.999 28,23.999C30.044,23.999 31.776,25.566 31.98,27.6ZM46.27,15.74C47.57,15.26 48.9,14.87 50.27,14.59C45.576,6.781 37.106,1.99 27.995,1.99C18.884,1.99 10.414,6.781 5.72,14.59C7.1,14.87 8.44,15.26 9.73,15.74C13.805,9.647 20.67,5.98 28,5.98C35.33,5.98 42.195,9.647 46.27,15.74ZM40.84,18.45C41.97,17.73 43.14,17.08 44.38,16.52C40.646,11.174 34.521,7.981 28,7.981C21.479,7.981 15.354,11.174 11.62,16.52C12.85,17.08 14.03,17.72 15.16,18.45C18.172,14.385 22.941,11.983 28,11.983C33.059,11.983 37.828,14.385 40.84,18.45ZM36.17,22.23C37.11,21.28 38.13,20.4 39.2,19.6C36.563,16.07 32.406,13.987 28,13.987C23.594,13.987 19.437,16.07 16.8,19.6C17.87,20.4 18.89,21.28 19.83,22.23C21.699,19.573 24.752,17.989 28,17.989C31.248,17.989 34.301,19.573 36.17,22.23Z" style="fill-rule:nonzero;"/>
</svg>
