<svg width="465" height="166" viewBox="0 0 465 166" fill="none" xmlns="http://www.w3.org/2000/svg">
<path d="M205.441 101.799L195.269 84.9913L185.086 101.799H205.441ZM206.814 69.3824L240.304 122.67H218.084L213.035 114.291H177.528L172.48 122.67H150.222L183.723 69.3824H206.814ZM444.998 86.8461C444.998 83.843 442.475 81.9376 438.588 81.9376H410.363V92.0323H438.98C442.628 92.0323 444.998 90.3037 444.998 86.821V86.8461ZM465 122.632H440.646L424.116 103.982H410.363V122.632H392.102V69.3697H442.941C453.53 69.3697 462.78 74.6694 462.78 86.1396C462.78 96.0954 455.509 101.711 446.817 102.543H445.151L465 122.632ZM318.425 122.632H384.76V110.013H336.696V101.799H384.76V89.6979H336.696V82.026H384.76V69.4075H318.373L318.425 122.632ZM279.258 80.7893C289.065 80.7352 298.786 82.6535 307.838 86.4297L311.447 73.6978C301.729 69.1805 290.575 67.3887 277.566 67.3887C259.344 67.3887 235.498 73.6978 235.498 95.9819C235.498 117.168 256.443 124.575 277.566 124.575C288.886 124.668 300.151 123.012 310.968 119.667V94.4297H292.417V110.064C288.072 111.051 283.626 111.538 279.167 111.515C263.358 111.515 254.676 105.382 254.676 96.2091C254.676 86.6191 262.79 80.9028 279.258 80.9028V80.7893ZM130.234 86.9723C130.234 83.9692 127.71 82.0638 123.824 82.0638H95.5842V92.1585H124.203C127.849 92.1585 130.221 90.4172 130.221 86.9472L130.234 86.9723ZM130.373 102.682L150.222 122.758H125.868L109.351 104.096H95.5842V122.758H77.3631V69.3824H128.203C138.789 69.3824 148.039 74.6821 148.039 86.1396C148.039 96.1081 140.77 101.723 132.076 102.543L130.373 102.682ZM53.2874 88.6001C53.2874 84.2593 49.8931 82.0387 45.2242 82.0387H18.2713V95.6285H45.7038C50.0444 95.6285 53.2747 92.9409 53.2747 88.5118L53.2874 88.6001ZM72.0129 88.5118C72.0129 101.13 62.6123 108.196 50.1959 108.196H18.2713V122.67H0V69.3824H50.1327C62.625 69.3824 72.0256 75.5526 72.0256 88.5118" fill="white"/>
<path d="M252.077 156.84C252.077 159.364 249.97 161.092 245.768 161.092C244.61 161.117 243.457 160.938 242.361 160.562L241.438 165.357C242.869 165.616 244.317 165.742 245.768 165.736C251.937 165.736 258.676 164.348 258.676 157.471V146.708H252.103L252.077 156.84Z" fill="white"/>
<path d="M73.5779 161.155C68.1266 161.155 65.1489 159.136 65.1489 156.045C65.1489 152.953 67.8869 150.896 73.5779 150.896C76.9566 150.892 80.3025 151.561 83.4202 152.865L84.682 148.385C81.0031 146.81 77.0222 146.064 73.0226 146.202C66.9659 146.202 58.5366 148.335 58.5366 156.019C58.5366 163.262 65.6914 165.824 73.0226 165.824C77.0248 165.89 80.999 165.148 84.7073 163.641L83.4453 159.199C80.3238 160.516 76.966 161.182 73.5779 161.155Z" fill="white"/>
<path d="M95.5969 146.708H89.2119V165.332H95.5969V146.708Z" fill="white"/>
<path d="M114.07 160.802H107.496V151.237H114.07C119.181 151.237 121.805 152.84 121.805 155.881C121.805 158.922 119.181 160.802 114.07 160.802ZM115.181 146.695H101.111V165.332H115.219C122.121 165.332 128.43 162.808 128.43 155.818C128.43 148.827 122.045 146.695 115.219 146.695" fill="white"/>
<path d="M132.998 165.332H156.191V160.916H139.383V157.572H156.191V153.345H139.383V151.124H156.191V146.708H132.998V165.332Z" fill="white"/>
<path d="M177.831 154.683H167.824V151.15H177.692C179.055 151.15 179.938 151.806 179.938 152.866C179.938 153.926 179.105 154.683 177.831 154.683ZM180.569 158.355C183.61 158.052 186.159 156.096 186.159 152.613C186.159 148.601 182.916 146.746 179.219 146.746H161.439V165.383H167.824V158.859H172.632L178.411 165.383H186.929L179.988 158.355H180.569Z" fill="white"/>
<path d="M202.725 151.427H214.814L202.007 164.474V165.332H226.45V160.638H214.26L226.965 147.566V146.708H202.725V151.427Z" fill="white"/>
<path d="M272.305 157.975L275.927 151.919L279.51 157.975H272.305ZM272.709 146.556L260.091 165.332H267.9L269.706 162.367H282.06L283.827 165.332H291.877L279.259 146.556H272.709Z" fill="white"/>
<path d="M312.622 160.992H302.375V157.648H312.469C314.829 157.648 315.687 158.115 315.687 159.187C315.687 160.26 314.803 160.992 312.609 160.992H312.622ZM302.362 151.15H312.28C313.391 151.15 314.083 151.452 314.083 152.222C314.083 152.992 313.415 153.383 312.306 153.383H302.362V151.15ZM318.451 154.683C319.112 154.471 319.687 154.048 320.086 153.478C320.485 152.908 320.685 152.223 320.659 151.528C320.659 148.222 317.529 146.746 313.718 146.746H295.991V165.383H313.731C318.425 165.383 322.273 163.478 322.273 159.074C322.296 158.006 321.923 156.968 321.224 156.161C320.524 155.354 319.547 154.836 318.488 154.708" fill="white"/>
<path d="M333.491 146.708H327.107V165.332H350.096V160.499H333.491V146.708Z" fill="white"/>
<path d="M354.435 165.332H377.629V160.916H360.822V157.572H377.629V153.345H360.822V151.124H377.629V146.708H354.435V165.332Z" fill="white"/>
<path d="M409.112 146.708H400.243L389.706 155.906V156.108L400.077 165.332H409.024L397.831 155.995L409.112 146.708Z" fill="white"/>
<path d="M389.262 146.708H382.878V165.332H389.262V146.708Z" fill="white"/>
<path d="M63.6221 29.1673C63.8548 29.167 64.0844 29.1105 64.2909 29.003C64.4821 28.8986 64.643 28.7465 64.7577 28.5615C64.8637 28.3589 64.9199 28.134 64.9217 27.9052C64.9199 27.691 64.8588 27.4814 64.745 27.2997C64.6292 27.1122 64.4689 26.9559 64.2782 26.8453C64.0756 26.7393 63.8507 26.6831 63.6221 26.6813H61.7924V29.2051L63.6221 29.1673ZM62.5117 22.1641L63.1931 22.9841L63.8745 22.1641H65.5402L64.0007 24.0062H62.3855L60.846 22.1892L62.5117 22.1641ZM59.5464 34.2019V24.713H63.7229C64.3398 24.7044 64.9497 24.8428 65.5021 25.1167C66.0224 25.3615 66.4607 25.7514 66.7641 26.2398C67.0616 26.7484 67.2144 27.3288 67.2056 27.9179C67.2064 28.319 67.1339 28.7167 66.9911 29.0914C66.8476 29.4502 66.6328 29.7764 66.3602 30.0505C66.0869 30.321 65.7661 30.5392 65.414 30.6941L67.4328 34.2146H64.909L63.1677 31.0221H61.7924V34.1892L59.5464 34.2019Z" fill="white"/>
<path d="M70.9399 34.2013V24.6997H77.6527V26.6934H73.186V28.4474H77.0091V30.315H73.186V32.2203H77.7159V34.2013H70.9399Z" fill="white"/>
<path d="M81.5273 34.2013V24.6997H83.4956L86.4358 28.7755L89.4138 24.6997H91.357V34.2013H89.1361V28.2707L86.7133 31.6651H86.1456L83.7607 28.2456V34.2013H81.5273Z" fill="white"/>
<path d="M95.7231 34.2013V24.6997H102.436V26.6934H97.9692V28.4474H101.793V30.315H97.9692V32.2203H102.499V34.2013H95.7231Z" fill="white"/>
<path d="M109.78 34.4425C108.993 34.4713 108.211 34.3156 107.496 33.9884C106.966 33.728 106.527 33.3147 106.234 32.8022C105.968 32.3278 105.829 31.7933 105.83 31.25H108.064V31.3635C108.064 31.3635 108.064 31.4394 108.064 31.4773C108.095 31.6944 108.192 31.8967 108.341 32.0576C108.508 32.2237 108.711 32.3488 108.934 32.4235C109.21 32.5191 109.5 32.5659 109.792 32.5623C110.128 32.5719 110.464 32.5338 110.789 32.4488C111.007 32.3929 111.202 32.2693 111.344 32.0954C111.462 31.9206 111.524 31.7135 111.521 31.5024C111.523 31.4042 111.506 31.3063 111.469 31.2153C111.432 31.1241 111.377 31.0415 111.306 30.9725C111.132 30.8039 110.92 30.6785 110.688 30.6064C110.341 30.4829 109.987 30.3774 109.628 30.2911C109.02 30.1603 108.424 29.9745 107.849 29.7359C107.368 29.5219 106.938 29.2079 106.587 28.8146C106.232 28.3772 106.048 27.8256 106.07 27.2626C106.052 26.7341 106.201 26.2136 106.496 25.7744C106.79 25.3352 107.215 24.9995 107.71 24.8147C108.356 24.5582 109.048 24.438 109.742 24.4613C110.445 24.4432 111.145 24.5678 111.799 24.8272C112.314 25.0381 112.753 25.3985 113.061 25.862C113.351 26.3452 113.5 26.9007 113.49 27.4645H111.18C111.184 27.266 111.125 27.0717 111.011 26.9085C110.898 26.7455 110.736 26.6222 110.549 26.5561C109.979 26.3708 109.366 26.3708 108.796 26.5561C108.622 26.6123 108.472 26.7229 108.367 26.8714C108.289 27.0012 108.25 27.1497 108.253 27.3005C108.252 27.3966 108.271 27.4922 108.308 27.581C108.345 27.6697 108.399 27.7502 108.467 27.8179C108.66 27.9881 108.889 28.1132 109.136 28.1837C109.548 28.3179 109.97 28.4192 110.398 28.4866C111.013 28.5998 111.611 28.7907 112.177 29.0545C112.644 29.275 113.047 29.609 113.351 30.0261C113.649 30.4686 113.799 30.9943 113.78 31.5275C113.795 32.0973 113.622 32.6564 113.288 33.1176C112.931 33.5803 112.45 33.9308 111.9 34.127C111.232 34.3646 110.526 34.4801 109.817 34.4677" fill="white"/>
<path d="M117.528 34.2013V24.6997H119.774V32.2203H123.736V34.2013H117.528Z" fill="white"/>
<path d="M127.407 34.2013V24.6997H129.363L133.868 30.5673V24.6997H136.101V34.2013H134.171L129.653 28.334V34.2013H127.407Z" fill="white"/>
<path d="M143.61 24.0324L144.948 21.8115L146.538 22.3667L145.15 24.0324H143.61ZM143.219 34.2028V30.6066L139.572 24.7136H142.172L144.342 28.638L146.5 24.7136H149.112L145.503 30.5939V34.2028H143.219Z" fill="white"/>
<path d="M304.595 34.2013V24.6997H306.551L311.043 30.5673V24.6997H313.277V34.2013H311.347L306.828 28.334V34.2013H304.595Z" fill="white"/>
<path d="M316.065 34.2013V24.6997H322.778V26.6934H318.311V28.4474H322.135V30.315H318.311V32.2203H322.84V34.2013H316.065Z" fill="white"/>
<path d="M325.073 34.2013V24.6997H331.775V26.6934H327.319V28.8511H331.143V30.7186H327.319V34.2013H325.073Z" fill="white"/>
<path d="M336.243 24.6997H333.997V34.2013H336.243V24.6997Z" fill="white"/>
<path d="M339.03 34.2013V24.6997H341.277V32.2203H345.238V34.2013H339.03Z" fill="white"/>
<path d="M348.217 34.2013V26.6934H345.567V24.6997H353.086V26.6934H350.451V34.2013H348.217Z" fill="white"/>
<path d="M359.244 29.1667C359.478 29.175 359.711 29.1183 359.913 29.0027C360.105 28.8981 360.265 28.746 360.379 28.561C360.485 28.3584 360.543 28.1335 360.545 27.9047C360.543 27.6904 360.48 27.4808 360.369 27.2992C360.252 27.1142 360.092 26.9619 359.9 26.8575C359.703 26.7398 359.475 26.6787 359.244 26.6808H357.415V29.2046L359.244 29.1667ZM355.169 34.2141V24.7125H359.346C359.96 24.7021 360.566 24.8404 361.112 25.1161C361.638 25.3591 362.076 25.755 362.374 26.2517C362.672 26.7554 362.825 27.3321 362.815 27.9174C362.817 28.3185 362.745 28.7162 362.602 29.0911C362.455 29.4489 362.242 29.7746 361.97 30.05C361.698 30.3205 361.377 30.5386 361.024 30.6936L363.043 34.2141H360.519L358.752 31.0216H357.376V34.1887L355.169 34.2141Z" fill="white"/>
<path d="M369.554 32.3718C370.075 32.3767 370.588 32.2464 371.044 31.9932C371.495 31.7533 371.865 31.3901 372.116 30.9457C372.375 30.4884 372.51 29.9705 372.508 29.4443C372.51 28.9142 372.375 28.3927 372.116 27.9299C371.857 27.4915 371.487 27.1299 371.044 26.8827C370.588 26.6342 370.08 26.5039 369.562 26.5039C369.044 26.5039 368.533 26.6342 368.077 26.8827C367.639 27.1335 367.274 27.4947 367.018 27.9299C366.753 28.3901 366.619 28.9134 366.626 29.4443C366.621 29.9576 366.753 30.4631 367.012 30.9074C367.269 31.3515 367.642 31.7181 368.09 31.9679C368.538 32.2194 369.041 32.35 369.554 32.3464V32.3718ZM369.554 34.3906C368.671 34.3844 367.803 34.1543 367.03 33.7219C366.256 33.2952 365.608 32.6731 365.149 31.9173C364.693 31.1556 364.453 30.2827 364.458 29.3938C364.45 28.5043 364.688 27.6304 365.149 26.87C365.608 26.1145 366.256 25.4921 367.03 25.0657C367.823 24.627 368.717 24.397 369.624 24.397C370.531 24.397 371.422 24.627 372.217 25.0657C372.99 25.4921 373.64 26.1145 374.096 26.87C374.565 27.6276 374.806 28.5036 374.79 29.3938C374.801 30.2835 374.562 31.1582 374.096 31.9173C373.64 32.6731 372.99 33.2952 372.217 33.7219C371.422 34.1662 370.528 34.3968 369.616 34.3906" fill="white"/>
<path d="M379.409 34.2013L375.471 24.6997H377.831L380.394 31.2739L380.43 31.2614L382.993 24.6997H385.353L381.415 34.2013H379.409Z" fill="white"/>
<path d="M387.775 32.6745L388.493 30.8197H391.219L391.926 32.6745H387.775ZM384.91 34.2013L388.809 24.687H390.905L394.802 34.2013H392.431L389.908 27.8922L389.843 27.602L389.768 27.8922L387.244 34.2013H384.91Z" fill="white"/>
<path d="M396.633 34.2013V24.6997H398.589L403.092 30.5673V24.6997H405.326V34.2013H403.396L398.88 28.334V34.2013H396.633Z" fill="white"/>
<path d="M411.27 24.0324L412.532 21.8115L414.122 22.3667L412.734 24.0324H411.27ZM410.866 34.2028V30.6066L407.22 24.7136H409.819L411.99 28.638L414.135 24.7136H416.796L413.138 30.6066V34.2152L410.866 34.2028Z" fill="white"/>
<path d="M198.271 31.1617V39.1492H192.771V19.4268H216.291V23.6033H198.271V26.9093H216.291V31.1617H198.271Z" fill="white"/>
<path d="M255.826 39.1492V31.4268H240.695V39.1492H235.194V19.4268H240.695V27.187H255.826V19.4268H261.326V39.1492H255.826Z" fill="white"/>
<path d="M228.43 29.5075L225.982 31.9554C225.92 32.015 225.837 32.0482 225.749 32.0482C225.663 32.0482 225.58 32.015 225.515 31.9554L223.067 29.5075C223.036 29.478 223.013 29.4428 222.997 29.4039C222.979 29.3648 222.971 29.3228 222.971 29.2803C222.971 29.2381 222.979 29.1961 222.997 29.157C223.013 29.1178 223.036 29.0826 223.067 29.0533L225.515 26.6052C225.58 26.5459 225.663 26.5127 225.749 26.5127C225.837 26.5127 225.92 26.5459 225.982 26.6052L228.43 29.0533C228.461 29.0826 228.485 29.1178 228.503 29.157C228.518 29.1961 228.526 29.2381 228.526 29.2803C228.526 29.3228 228.518 29.3648 228.503 29.4039C228.485 29.4428 228.461 29.478 228.43 29.5075Z" fill="white"/>
<path d="M273.137 29.5075L270.424 32.1826L267.75 29.5075C267.719 29.478 267.696 29.4428 267.678 29.4039C267.662 29.3648 267.654 29.3228 267.654 29.2803C267.654 29.2381 267.662 29.1961 267.678 29.157C267.696 29.1178 267.719 29.0826 267.75 29.0533L270.199 26.6052C270.261 26.5459 270.344 26.5127 270.432 26.5127C270.517 26.5127 270.603 26.5459 270.665 26.6052L273.113 29.0533C273.144 29.0826 273.168 29.1178 273.183 29.157C273.201 29.1961 273.209 29.2381 273.209 29.2803C273.209 29.3228 273.201 29.3648 273.183 29.4039C273.168 29.4428 273.144 29.478 273.113 29.5075" fill="white"/>
<path d="M186.007 29.5075L183.56 31.9554C183.497 32.015 183.414 32.0482 183.327 32.0482C183.24 32.0482 183.157 32.015 183.093 31.9554L180.645 29.5075C180.615 29.478 180.591 29.4428 180.574 29.4039C180.557 29.3648 180.549 29.3228 180.549 29.2803C180.549 29.2381 180.557 29.1961 180.574 29.157C180.591 29.1178 180.615 29.0826 180.645 29.0533L183.093 26.6052C183.157 26.5459 183.24 26.5127 183.327 26.5127C183.414 26.5127 183.497 26.5459 183.56 26.6052L186.007 29.0533C186.038 29.0826 186.064 29.1178 186.08 29.157C186.095 29.1961 186.106 29.2381 186.106 29.2803C186.106 29.3228 186.095 29.3648 186.08 29.4039C186.064 29.4428 186.038 29.478 186.007 29.5075Z" fill="white"/>
<path d="M226.891 0.0192375C226.668 -0.00641249 226.445 -0.00641249 226.222 0.0192375L169.313 12.0949C168.583 12.2483 167.927 12.6478 167.457 13.2266C166.986 13.8054 166.728 14.5286 166.727 15.2747V43.3633C166.73 44.1089 166.989 44.8308 167.46 45.409C167.93 45.9876 168.584 46.3876 169.313 46.5431L226.222 58.518C226.443 58.5581 226.665 58.5794 226.891 58.5809C227.116 58.5789 227.339 58.5576 227.559 58.518L284.468 46.5431C285.186 46.3773 285.829 45.9723 286.287 45.3948C286.746 44.817 286.995 44.1006 286.992 43.3633V15.2369C286.997 14.4988 286.748 13.7813 286.29 13.2033C285.831 12.625 285.189 12.2208 284.468 12.0571L227.523 0.0822004C227.3 0.0573277 227.075 0.0573277 226.852 0.0822004L226.891 0.0192375ZM226.852 3.32523L283.761 15.2999V43.3884L226.852 55.3506L169.944 43.3884V15.2369L226.852 3.32523Z" fill="white"/>
</svg>
